<?xml version="1.0" encoding="UTF-8" standalone="no"?><svg xmlns="http://www.w3.org/2000/svg" xmlns:xlink="http://www.w3.org/1999/xlink" contentScriptType="application/ecmascript" contentStyleType="text/css" height="1666px" preserveAspectRatio="none" style="width:1806px;height:1666px;" version="1.1" viewBox="0 0 1806 1666" width="1806px" zoomAndPan="magnify"><defs><filter height="300%" id="frxvuywzkmi54" width="300%" x="-1" y="-1"><feGaussianBlur result="blurOut" stdDeviation="2.0"/><feColorMatrix in="blurOut" result="blurOut2" type="matrix" values="0 0 0 0 0 0 0 0 0 0 0 0 0 0 0 0 0 0 .4 0"/><feOffset dx="4.0" dy="4.0" in="blurOut2" result="blurOut3"/><feBlend in="SourceGraphic" in2="blurOut3" mode="normal"/></filter></defs><g><text fill="#000000" font-family="sans-serif" font-size="18" lengthAdjust="spacingAndGlyphs" textLength="361" x="721.5" y="26.708">Application: from start to exit (main.cpp)</text><ellipse cx="924.5" cy="40.9531" fill="#000000" filter="url(#frxvuywzkmi54)" rx="10" ry="10" style="stroke: none; stroke-width: 1.0;"/><rect fill="#FEFECE" filter="url(#frxvuywzkmi54)" height="33.9688" rx="12.5" ry="12.5" style="stroke: #A80036; stroke-width: 1.5;" width="310" x="769.5" y="70.9531"/><text fill="#000000" font-family="sans-serif" font-size="12" lengthAdjust="spacingAndGlyphs" textLength="290" x="779.5" y="92.0918">Read --load and --seed from the command line</text><rect fill="#FEFECE" filter="url(#frxvuywzkmi54)" height="33.9688" rx="12.5" ry="12.5" style="stroke: #A80036; stroke-width: 1.5;" width="277" x="786" y="124.9219"/><text fill="#000000" font-family="sans-serif" font-size="12" lengthAdjust="spacingAndGlyphs" textLength="257" x="796" y="146.0605">gameSettings::load() reads settings.json</text><rect fill="#FEFECE" filter="url(#frxvuywzkmi54)" height="33.9688" rx="12.5" ry="12.5" style="stroke: #A80036; stroke-width: 1.5;" width="357" x="746" y="178.8906"/><text fill="#000000" font-family="sans-serif" font-size="12" lengthAdjust="spacingAndGlyphs" textLength="337" x="756" y="200.0293">Install crash log (crash-&lt;date&gt;.log in the save folder)</text><rect fill="#FEFECE" filter="url(#frxvuywzkmi54)" height="33.9688" rx="12.5" ry="12.5" style="stroke: #A80036; stroke-width: 1.5;" width="293" x="778" y="232.8594"/><text fill="#000000" font-family="sans-serif" font-size="12" lengthAdjust="spacingAndGlyphs" textLength="273" x="788" y="253.998">Create presenter, load skins, sounds, fonts</text><polygon fill="#FEFECE" filter="url(#frxvuywzkmi54)" points="63.5,372.6328,195.5,372.6328,207.5,384.6328,195.5,396.6328,63.5,396.6328,51.5,384.6328,63.5,372.6328" style="stroke: #A80036; stroke-width: 1.5;"/><text fill="#000000" font-family="sans-serif" font-size="11" lengthAdjust="spacingAndGlyphs" textLength="20" x="133.5" y="406.8433">yes</text><text fill="#000000" font-family="sans-serif" font-size="11" lengthAdjust="spacingAndGlyphs" textLength="132" x="63.5" y="388.4409">saving failed last time?</text><rect fill="#FEFECE" filter="url(#frxvuywzkmi54)" height="33.9688" rx="12.5" ry="12.5" style="stroke: #A80036; stroke-width: 1.5;" width="169" x="45" y="429.4375"/><text fill="#000000" font-family="sans-serif" font-size="12" lengthAdjust="spacingAndGlyphs" textLength="149" x="55" y="450.5762">Back to the same game</text><rect fill="#FEFECE" filter="url(#frxvuywzkmi54)" height="33.9688" rx="12.5" ry="12.5" style="stroke: #A80036; stroke-width: 1.5;" width="89" x="85" y="483.4063"/><text fill="#000000" font-family="sans-serif" font-size="12" lengthAdjust="spacingAndGlyphs" textLength="69" x="95" y="504.5449">play = true</text><polygon fill="#FEFECE" filter="url(#frxvuywzkmi54)" points="246,372.6328,490,372.6328,502,384.6328,490,396.6328,246,396.6328,234,384.6328,246,372.6328" style="stroke: #A80036; stroke-width: 1.5;"/><text fill="#000000" font-family="sans-serif" font-size="11" lengthAdjust="spacingAndGlyphs" textLength="20" x="372" y="406.8433">yes</text><text fill="#000000" font-family="sans-serif" font-size="11" lengthAdjust="spacingAndGlyphs" textLength="244" x="246" y="388.4409">first loop, --load given and the save loads?</text><text fill="#000000" font-family="sans-serif" font-size="11" lengthAdjust="spacingAndGlyphs" textLength="64" x="502" y="382.0386">title screen</text><rect fill="#FEFECE" filter="url(#frxvuywzkmi54)" height="33.9688" rx="12.5" ry="12.5" style="stroke: #A80036; stroke-width: 1.5;" width="89" x="323.5" y="429.4375"/><text fill="#000000" font-family="sans-serif" font-size="12" lengthAdjust="spacingAndGlyphs" textLength="69" x="333.5" y="450.5762">play = true</text><rect fill="#FEFECE" filter="url(#frxvuywzkmi54)" height="47.9375" rx="12.5" ry="12.5" style="stroke: #A80036; stroke-width: 1.5;" width="295" x="1015.5" y="411.834"/><text fill="#000000" font-family="sans-serif" font-size="12" lengthAdjust="spacingAndGlyphs" textLength="172" x="1025.5" y="432.9727">titleMenu waits for a choice</text><text fill="#000000" font-family="sans-serif" font-size="12" lengthAdjust="spacingAndGlyphs" textLength="275" x="1025.5" y="446.9414">(demo after demoWait + rand(demoWait) s)</text><polygon fill="#FEFECE" filter="url(#frxvuywzkmi54)" points="798,504.7715,840,504.7715,852,516.7715,840,528.7715,798,528.7715,786,516.7715,798,504.7715" style="stroke: #A80036; stroke-width: 1.5;"/><text fill="#000000" font-family="sans-serif" font-size="11" lengthAdjust="spacingAndGlyphs" textLength="185" x="823" y="538.9819">DEMO: nobody pressed anything</text><text fill="#000000" font-family="sans-serif" font-size="11" lengthAdjust="spacingAndGlyphs" textLength="42" x="798" y="520.5796">choice?</text><rect fill="#FEFECE" filter="url(#frxvuywzkmi54)" height="33.9688" rx="12.5" ry="12.5" style="stroke: #A80036; stroke-width: 1.5;" width="220" x="709" y="560.4819"/><text fill="#000000" font-family="sans-serif" font-size="12" lengthAdjust="spacingAndGlyphs" textLength="200" x="719" y="581.6206">Fresh world with a random seed</text><rect fill="#FEFECE" filter="url(#frxvuywzkmi54)" height="33.9688" rx="12.5" ry="12.5" style="stroke: #A80036; stroke-width: 1.5;" width="364" x="637" y="629.4507"/><text fill="#000000" font-family="sans-serif" font-size="12" lengthAdjust="spacingAndGlyphs" textLength="344" x="647" y="650.5894">worldBuilder::movePlayerTo(a chunk 23-63 chunks out)</text><rect fill="#FEFECE" filter="url(#frxvuywzkmi54)" height="47.9375" rx="12.5" ry="12.5" style="stroke: #A80036; stroke-width: 1.5;" width="265" x="686.5" y="698.4194"/><text fill="#000000" font-family="sans-serif" font-size="12" lengthAdjust="spacingAndGlyphs" textLength="245" x="696.5" y="719.5581">presentEverything(demo, demoLength)</text><text fill="#000000" font-family="sans-serif" font-size="12" lengthAdjust="spacingAndGlyphs" textLength="203" x="696.5" y="733.5269">autopilot plays, nothing is saved</text><rect fill="#FEFECE" filter="url(#frxvuywzkmi54)" height="33.9688" rx="12.5" ry="12.5" style="stroke: #A80036; stroke-width: 1.5;" width="228" x="705" y="781.3569"/><text fill="#000000" font-family="sans-serif" font-size="12" lengthAdjust="spacingAndGlyphs" textLength="208" x="715" y="802.4956">Clear the world, restore the seed</text><polygon fill="#FEFECE" filter="url(#frxvuywzkmi54)" points="607,863.1616,740,863.1616,752,875.1616,740,887.1616,607,887.1616,595,875.1616,607,863.1616" style="stroke: #A80036; stroke-width: 1.5;"/><text fill="#000000" font-family="sans-serif" font-size="11" lengthAdjust="spacingAndGlyphs" textLength="136" x="677.5" y="897.3721">time is up: DEMO_DONE</text><text fill="#000000" font-family="sans-serif" font-size="11" lengthAdjust="spacingAndGlyphs" textLength="133" x="607" y="878.9697">how did the demo end?</text><rect fill="#FEFECE" filter="url(#frxvuywzkmi54)" height="33.9688" rx="12.5" ry="12.5" style="stroke: #A80036; stroke-width: 1.5;" width="303" x="522" y="919.9663"/><text fill="#000000" font-family="sans-serif" font-size="12" lengthAdjust="spacingAndGlyphs" textLength="283" x="532" y="941.105">Show the hall of fame for hallOfFameLength s</text><polygon fill="#FEFECE" filter="url(#frxvuywzkmi54)" points="857,863.1616,1054,863.1616,1066,875.1616,1054,887.1616,857,887.1616,845,875.1616,857,863.1616" style="stroke: #A80036; stroke-width: 1.5;"/><text fill="#000000" font-family="sans-serif" font-size="11" lengthAdjust="spacingAndGlyphs" textLength="20" x="959.5" y="897.3721">yes</text><text fill="#000000" font-family="sans-serif" font-size="11" lengthAdjust="spacingAndGlyphs" textLength="197" x="857" y="878.9697">a key, button or stick: DEMO_OVER</text><text fill="#000000" font-family="sans-serif" font-size="11" lengthAdjust="spacingAndGlyphs" textLength="83" x="1066" y="872.5674">window closed</text><ellipse cx="1101" cy="933.5483" fill="#FFFFFF" filter="url(#frxvuywzkmi54)" rx="11" ry="11" style="stroke: #000000; stroke-width: 1.0;"/><ellipse cx="1101" cy="933.5483" fill="#000000" rx="6" ry="6" style="stroke: #7F7F7F; stroke-width: 1.0;"/><rect fill="#FEFECE" filter="url(#frxvuywzkmi54)" height="33.9688" rx="12.5" ry="12.5" style="stroke: #A80036; stroke-width: 1.5;" width="207" x="715.5" y="993.9351"/><text fill="#000000" font-family="sans-serif" font-size="12" lengthAdjust="spacingAndGlyphs" textLength="187" x="725.5" y="1015.0737">play = false (back to the title)</text><polygon fill="#FEFECE" filter="url(#frxvuywzkmi54)" points="1253.5,504.7715,1295.5,504.7715,1307.5,516.7715,1295.5,528.7715,1253.5,528.7715,1241.5,516.7715,1253.5,504.7715" style="stroke: #A80036; stroke-width: 1.5;"/><text fill="#000000" font-family="sans-serif" font-size="11" lengthAdjust="spacingAndGlyphs" textLength="58" x="1278.5" y="538.9819">CONTINUE</text><text fill="#000000" font-family="sans-serif" font-size="11" lengthAdjust="spacingAndGlyphs" textLength="42" x="1253.5" y="520.5796">choice?</text><polygon fill="#FEFECE" filter="url(#frxvuywzkmi54)" points="1229.5,560.4819,1319.5,560.4819,1331.5,572.4819,1319.5,584.4819,1229.5,584.4819,1217.5,572.4819,1229.5,560.4819" style="stroke: #A80036; stroke-width: 1.5;"/><text fill="#000000" font-family="sans-serif" font-size="11" lengthAdjust="spacingAndGlyphs" textLength="90" x="1229.5" y="576.29">the save loads?</text><text fill="#000000" font-family="sans-serif" font-size="11" lengthAdjust="spacingAndGlyphs" textLength="20" x="1197.5" y="569.8877">yes</text><text fill="#000000" font-family="sans-serif" font-size="11" lengthAdjust="spacingAndGlyphs" textLength="14" x="1331.5" y="569.8877">no</text><rect fill="#FEFECE" filter="url(#frxvuywzkmi54)" height="33.9688" rx="12.5" ry="12.5" style="stroke: #A80036; stroke-width: 1.5;" width="89" x="1146" y="594.4819"/><text fill="#000000" font-family="sans-serif" font-size="12" lengthAdjust="spacingAndGlyphs" textLength="69" x="1156" y="615.6206">play = true</text><rect fill="#FEFECE" filter="url(#frxvuywzkmi54)" height="33.9688" rx="12.5" ry="12.5" style="stroke: #A80036; stroke-width: 1.5;" width="171" x="1273" y="594.4819"/><text fill="#000000" font-family="sans-serif" font-size="12" lengthAdjust="spacingAndGlyphs" textLength="151" x="1283" y="615.6206">Show "Cannot continue"</text><rect fill="#FEFECE" filter="url(#frxvuywzkmi54)" height="33.9688" rx="12.5" ry="12.5" style="stroke: #A80036; stroke-width: 1.5;" width="207" x="1255" y="663.4507"/><text fill="#000000" font-family="sans-serif" font-size="12" lengthAdjust="spacingAndGlyphs" textLength="187" x="1265" y="684.5894">play = false (back to the title)</text><polygon fill="#FEFECE" filter="url(#frxvuywzkmi54)" points="1274.5,703.4194,1286.5,715.4194,1274.5,727.4194,1262.5,715.4194,1274.5,703.4194" style="stroke: #A80036; stroke-width: 1.5;"/><polygon fill="#FEFECE" filter="url(#frxvuywzkmi54)" points="1582,504.7715,1624,504.7715,1636,516.7715,1624,528.7715,1582,528.7715,1570,516.7715,1582,504.7715" style="stroke: #A80036; stroke-width: 1.5;"/><text fill="#000000" font-family="sans-serif" font-size="11" lengthAdjust="spacingAndGlyphs" textLength="36" x="1607" y="538.9819">START</text><text fill="#000000" font-family="sans-serif" font-size="11" lengthAdjust="spacingAndGlyphs" textLength="42" x="1582" y="520.5796">choice?</text><text fill="#000000" font-family="sans-serif" font-size="11" lengthAdjust="spacingAndGlyphs" textLength="24" x="1636" y="514.1772">EXIT</text><rect fill="#FEFECE" filter="url(#frxvuywzkmi54)" height="47.9375" rx="12.5" ry="12.5" style="stroke: #A80036; stroke-width: 1.5;" width="209" x="1498.5" y="608.8843"/><text fill="#000000" font-family="sans-serif" font-size="12" lengthAdjust="spacingAndGlyphs" textLength="185" x="1508.5" y="630.0229">Clear the old world, new seed</text><text fill="#000000" font-family="sans-serif" font-size="12" lengthAdjust="spacingAndGlyphs" textLength="189" x="1508.5" y="643.9917">(the --seed one again if given)</text><polygon fill="#FEFECE" filter="url(#frxvuywzkmi54)" points="1524,560.4819,1682,560.4819,1694,572.4819,1682,584.4819,1524,584.4819,1512,572.4819,1524,560.4819" style="stroke: #A80036; stroke-width: 1.5;"/><text fill="#000000" font-family="sans-serif" font-size="11" lengthAdjust="spacingAndGlyphs" textLength="20" x="1607" y="594.6924">yes</text><text fill="#000000" font-family="sans-serif" font-size="11" lengthAdjust="spacingAndGlyphs" textLength="158" x="1524" y="576.29">a game was played before?</text><polygon fill="#FEFECE" filter="url(#frxvuywzkmi54)" points="1603,681.2241,1615,693.2241,1603,705.2241,1591,693.2241,1603,681.2241" style="stroke: #A80036; stroke-width: 1.5;"/><rect fill="#FEFECE" filter="url(#frxvuywzkmi54)" height="33.9688" rx="12.5" ry="12.5" style="stroke: #A80036; stroke-width: 1.5;" width="170" x="1518" y="740.2241"/><text fill="#000000" font-family="sans-serif" font-size="12" lengthAdjust="spacingAndGlyphs" textLength="150" x="1528" y="761.3628">worldBuilder::startNew()</text><rect fill="#FEFECE" filter="url(#frxvuywzkmi54)" height="33.9688" rx="12.5" ry="12.5" style="stroke: #A80036; stroke-width: 1.5;" width="262" x="1472" y="809.1929"/><text fill="#000000" font-family="sans-serif" font-size="12" lengthAdjust="spacingAndGlyphs" textLength="242" x="1482" y="830.3315">Move the old save aside (replaceSave)</text><rect fill="#FEFECE" filter="url(#frxvuywzkmi54)" height="33.9688" rx="12.5" ry="12.5" style="stroke: #A80036; stroke-width: 1.5;" width="89" x="1558.5" y="865.9976"/><text fill="#000000" font-family="sans-serif" font-size="12" lengthAdjust="spacingAndGlyphs" textLength="69" x="1568.5" y="887.1362">play = true</text><ellipse cx="1755" cy="831.8726" fill="#FFFFFF" filter="url(#frxvuywzkmi54)" rx="11" ry="11" style="stroke: #000000; stroke-width: 1.0;"/><ellipse cx="1755" cy="831.8726" fill="#000000" rx="6" ry="6" style="stroke: #7F7F7F; stroke-width: 1.0;"/><rect fill="#FEFECE" filter="url(#frxvuywzkmi54)" height="33.9688" rx="12.5" ry="12.5" style="stroke: #A80036; stroke-width: 1.5;" width="174" x="837.5" y="1155.8687"/><text fill="#000000" font-family="sans-serif" font-size="12" lengthAdjust="spacingAndGlyphs" textLength="154" x="847.5" y="1177.0073">presentEverything(false)</text><polygon fill="#FEFECE" filter="url(#frxvuywzkmi54)" points="600.5,1209.8374,663.5,1209.8374,675.5,1221.8374,663.5,1233.8374,600.5,1233.8374,588.5,1221.8374,600.5,1209.8374" style="stroke: #A80036; stroke-width: 1.5;"/><text fill="#000000" font-family="sans-serif" font-size="11" lengthAdjust="spacingAndGlyphs" textLength="30" x="636" y="1244.0479">LOST</text><text fill="#000000" font-family="sans-serif" font-size="11" lengthAdjust="spacingAndGlyphs" textLength="63" x="600.5" y="1225.6455">game end?</text><rect fill="#FEFECE" filter="url(#frxvuywzkmi54)" height="33.9688" rx="12.5" ry="12.5" style="stroke: #A80036; stroke-width: 1.5;" width="195" x="534.5" y="1265.5479"/><text fill="#000000" font-family="sans-serif" font-size="12" lengthAdjust="spacingAndGlyphs" textLength="175" x="544.5" y="1286.6865">Delete the lost game's save</text><rect fill="#FEFECE" filter="url(#frxvuywzkmi54)" height="33.9688" rx="12.5" ry="12.5" style="stroke: #A80036; stroke-width: 1.5;" width="158" x="553" y="1367.9189"/><text fill="#000000" font-family="sans-serif" font-size="12" lengthAdjust="spacingAndGlyphs" textLength="138" x="563" y="1389.0576">Ask the player's name</text><rect fill="#FEFECE" filter="url(#frxvuywzkmi54)" height="33.9688" rx="12.5" ry="12.5" style="stroke: #A80036; stroke-width: 1.5;" width="253" x="505.5" y="1436.8877"/><text fill="#000000" font-family="sans-serif" font-size="12" lengthAdjust="spacingAndGlyphs" textLength="233" x="515.5" y="1458.0264">hallOfFame.add, save halloffame.json</text><polygon fill="#FEFECE" filter="url(#frxvuywzkmi54)" points="575,1319.5166,689,1319.5166,701,1331.5166,689,1343.5166,575,1343.5166,563,1331.5166,575,1319.5166" style="stroke: #A80036; stroke-width: 1.5;"/><text fill="#000000" font-family="sans-serif" font-size="11" lengthAdjust="spacingAndGlyphs" textLength="20" x="636" y="1353.7271">yes</text><text fill="#000000" font-family="sans-serif" font-size="11" lengthAdjust="spacingAndGlyphs" textLength="114" x="575" y="1335.3247">score in the top 10?</text><polygon fill="#FEFECE" filter="url(#frxvuywzkmi54)" points="632,1490.8564,644,1502.8564,632,1514.8564,620,1502.8564,632,1490.8564" style="stroke: #A80036; stroke-width: 1.5;"/><rect fill="#FEFECE" filter="url(#frxvuywzkmi54)" height="33.9688" rx="12.5" ry="12.5" style="stroke: #A80036; stroke-width: 1.5;" width="298" x="483" y="1534.8564"/><text fill="#000000" font-family="sans-serif" font-size="12" lengthAdjust="spacingAndGlyphs" textLength="278" x="493" y="1555.9951">Show the hall of fame, new entry highlighted</text><polygon fill="#FEFECE" filter="url(#frxvuywzkmi54)" points="890.5,1209.8374,953.5,1209.8374,965.5,1221.8374,953.5,1233.8374,890.5,1233.8374,878.5,1221.8374,890.5,1209.8374" style="stroke: #A80036; stroke-width: 1.5;"/><text fill="#000000" font-family="sans-serif" font-size="11" lengthAdjust="spacingAndGlyphs" textLength="37" x="926" y="1244.0479">SAVED</text><text fill="#000000" font-family="sans-serif" font-size="11" lengthAdjust="spacingAndGlyphs" textLength="63" x="890.5" y="1225.6455">game end?</text><rect fill="#FEFECE" filter="url(#frxvuywzkmi54)" height="33.9688" rx="12.5" ry="12.5" style="stroke: #A80036; stroke-width: 1.5;" width="242" x="801" y="1265.5479"/><text fill="#000000" font-family="sans-serif" font-size="12" lengthAdjust="spacingAndGlyphs" textLength="222" x="811" y="1286.6865">Back to the title, Continue resumes</text><polygon fill="#FEFECE" filter="url(#frxvuywzkmi54)" points="1158,1209.8374,1221,1209.8374,1233,1221.8374,1221,1233.8374,1158,1233.8374,1146,1221.8374,1158,1209.8374" style="stroke: #A80036; stroke-width: 1.5;"/><text fill="#000000" font-family="sans-serif" font-size="11" lengthAdjust="spacingAndGlyphs" textLength="72" x="1193.5" y="1244.0479">SAVE_FAILED</text><text fill="#000000" font-family="sans-serif" font-size="11" lengthAdjust="spacingAndGlyphs" textLength="63" x="1158" y="1225.6455">game end?</text><text fill="#000000" font-family="sans-serif" font-size="11" lengthAdjust="spacingAndGlyphs" textLength="27" x="1233" y="1219.2432">QUIT</text><rect fill="#FEFECE" filter="url(#frxvuywzkmi54)" height="33.9688" rx="12.5" ry="12.5" style="stroke: #A80036; stroke-width: 1.5;" width="253" x="1063" y="1265.5479"/><text fill="#000000" font-family="sans-serif" font-size="12" lengthAdjust="spacingAndGlyphs" textLength="233" x="1073" y="1286.6865">Show "The game could not be saved"</text><rect fill="#FEFECE" filter="url(#frxvuywzkmi54)" height="33.9688" rx="12.5" ry="12.5" style="stroke: #A80036; stroke-width: 1.5;" width="229" x="1075" y="1319.5166"/><text fill="#000000" font-family="sans-serif" font-size="12" lengthAdjust="spacingAndGlyphs" textLength="209" x="1085" y="1340.6553">Next loop goes back to the game</text><ellipse cx="1351" cy="1415.9854" fill="#FFFFFF" filter="url(#frxvuywzkmi54)" rx="11" ry="11" style="stroke: #000000; stroke-width: 1.0;"/><ellipse cx="1351" cy="1415.9854" fill="#000000" rx="6" ry="6" style="stroke: #7F7F7F; stroke-width: 1.0;"/><polygon fill="#FEFECE" filter="url(#frxvuywzkmi54)" points="910,1107.4663,939,1107.4663,951,1119.4663,939,1131.4663,910,1131.4663,898,1119.4663,910,1107.4663" style="stroke: #A80036; stroke-width: 1.5;"/><text fill="#000000" font-family="sans-serif" font-size="11" lengthAdjust="spacingAndGlyphs" textLength="20" x="928.5" y="1141.6768">yes</text><text fill="#000000" font-family="sans-serif" font-size="11" lengthAdjust="spacingAndGlyphs" textLength="29" x="910" y="1123.2744">play?</text><polygon fill="#FEFECE" filter="url(#frxvuywzkmi54)" points="924.5,1608.8252,936.5,1620.8252,924.5,1632.8252,912.5,1620.8252,924.5,1608.8252" style="stroke: #A80036; stroke-width: 1.5;"/><polygon fill="#FEFECE" filter="url(#frxvuywzkmi54)" points="884.5,286.8281,964.5,286.8281,976.5,298.8281,964.5,310.8281,884.5,310.8281,872.5,298.8281,884.5,286.8281" style="stroke: #A80036; stroke-width: 1.5;"/><text fill="#000000" font-family="sans-serif" font-size="11" lengthAdjust="spacingAndGlyphs" textLength="20" x="928.5" y="321.0386">yes</text><text fill="#000000" font-family="sans-serif" font-size="11" lengthAdjust="spacingAndGlyphs" textLength="80" x="884.5" y="302.6362">window open?</text><text fill="#000000" font-family="sans-serif" font-size="11" lengthAdjust="spacingAndGlyphs" textLength="14" x="858.5" y="296.2339">no</text><ellipse cx="24" cy="345.8281" fill="#FFFFFF" filter="url(#frxvuywzkmi54)" rx="11" ry="11" style="stroke: #000000; stroke-width: 1.0;"/><ellipse cx="24" cy="345.8281" fill="#000000" rx="6" ry="6" style="stroke: #7F7F7F; stroke-width: 1.0;"/><line style="stroke: #A80036; stroke-width: 1.5;" x1="924.5" x2="924.5" y1="50.9531" y2="70.9531"/><polygon fill="#A80036" points="920.5,60.9531,924.5,70.9531,928.5,60.9531,924.5,64.9531" style="stroke: #A80036; stroke-width: 1.0;"/><line style="stroke: #A80036; stroke-width: 1.5;" x1="924.5" x2="924.5" y1="104.9219" y2="124.9219"/><polygon fill="#A80036" points="920.5,114.9219,924.5,124.9219,928.5,114.9219,924.5,118.9219" style="stroke: #A80036; stroke-width: 1.0;"/><line style="stroke: #A80036; stroke-width: 1.5;" x1="924.5" x2="924.5" y1="158.8906" y2="178.8906"/><polygon fill="#A80036" points="920.5,168.8906,924.5,178.8906,928.5,168.8906,924.5,172.8906" style="stroke: #A80036; stroke-width: 1.0;"/><line style="stroke: #A80036; stroke-width: 1.5;" x1="924.5" x2="924.5" y1="212.8594" y2="232.8594"/><polygon fill="#A80036" points="920.5,222.8594,924.5,232.8594,928.5,222.8594,924.5,226.8594" style="stroke: #A80036; stroke-width: 1.0;"/><line style="stroke: #A80036; stroke-width: 1.5;" x1="129.5" x2="129.5" y1="463.4063" y2="483.4063"/><polygon fill="#A80036" points="125.5,473.4063,129.5,483.4063,133.5,473.4063,129.5,477.4063" style="stroke: #A80036; stroke-width: 1.0;"/><line style="stroke: #A80036; stroke-width: 1.5;" x1="819" x2="819" y1="594.4507" y2="629.4507"/><polygon fill="#A80036" points="815,619.4507,819,629.4507,823,619.4507,819,623.4507" style="stroke: #A80036; stroke-width: 1.0;"/><line style="stroke: #A80036; stroke-width: 1.5;" x1="819" x2="819" y1="663.4194" y2="698.4194"/><polygon fill="#A80036" points="815,688.4194,819,698.4194,823,688.4194,819,692.4194" style="stroke: #A80036; stroke-width: 1.0;"/><line style="stroke: #A80036; stroke-width: 1.5;" x1="819" x2="819" y1="746.3569" y2="781.3569"/><polygon fill="#A80036" points="815,771.3569,819,781.3569,823,771.3569,819,775.3569" style="stroke: #A80036; stroke-width: 1.0;"/><line style="stroke: #A80036; stroke-width: 1.5;" x1="673.5" x2="673.5" y1="887.1616" y2="919.9663"/><polygon fill="#A80036" points="669.5,909.9663,673.5,919.9663,677.5,909.9663,673.5,913.9663" style="stroke: #A80036; stroke-width: 1.0;"/><line style="stroke: #A80036; stroke-width: 1.5;" x1="673.5" x2="673.5" y1="953.9351" y2="973.9351"/><polygon fill="#A80036" points="669.5,963.9351,673.5,973.9351,677.5,963.9351,673.5,967.9351" style="stroke: #A80036; stroke-width: 1.0;"/><line style="stroke: #A80036; stroke-width: 1.5;" x1="955.5" x2="955.5" y1="887.1616" y2="973.9351"/><polygon fill="#A80036" points="951.5,963.9351,955.5,973.9351,959.5,963.9351,955.5,967.9351" style="stroke: #A80036; stroke-width: 1.0;"/><line style="stroke: #A80036; stroke-width: 1.5;" x1="752" x2="845" y1="875.1616" y2="875.1616"/><polygon fill="#A80036" points="835,871.1616,845,875.1616,835,879.1616,839,875.1616" style="stroke: #A80036; stroke-width: 1.0;"/><line style="stroke: #A80036; stroke-width: 1.5;" x1="819" x2="819" y1="815.3257" y2="848.1616"/><line style="stroke: #A80036; stroke-width: 1.5;" x1="819" x2="673.5" y1="848.1616" y2="848.1616"/><line style="stroke: #A80036; stroke-width: 1.5;" x1="673.5" x2="673.5" y1="848.1616" y2="863.1616"/><polygon fill="#A80036" points="669.5,853.1616,673.5,863.1616,677.5,853.1616,673.5,857.1616" style="stroke: #A80036; stroke-width: 1.0;"/><line style="stroke: #A80036; stroke-width: 1.5;" x1="1066" x2="1101" y1="875.1616" y2="875.1616"/><line style="stroke: #A80036; stroke-width: 1.5;" x1="1101" x2="1101" y1="875.1616" y2="922.5483"/><polygon fill="#A80036" points="1097,912.5483,1101,922.5483,1105,912.5483,1101,916.5483" style="stroke: #A80036; stroke-width: 1.0;"/><line style="stroke: #A80036; stroke-width: 1.5;" x1="673.5" x2="955.5" y1="973.9351" y2="973.9351"/><line style="stroke: #A80036; stroke-width: 1.5;" x1="819" x2="819" y1="973.9351" y2="993.9351"/><polygon fill="#A80036" points="815,983.9351,819,993.9351,823,983.9351,819,987.9351" style="stroke: #A80036; stroke-width: 1.0;"/><line style="stroke: #A80036; stroke-width: 1.5;" x1="1358.5" x2="1358.5" y1="628.4507" y2="663.4507"/><polygon fill="#A80036" points="1354.5,653.4507,1358.5,663.4507,1362.5,653.4507,1358.5,657.4507" style="stroke: #A80036; stroke-width: 1.0;"/><line style="stroke: #A80036; stroke-width: 1.5;" x1="1217.5" x2="1190.5" y1="572.4819" y2="572.4819"/><line style="stroke: #A80036; stroke-width: 1.5;" x1="1190.5" x2="1190.5" y1="572.4819" y2="594.4819"/><polygon fill="#A80036" points="1186.5,584.4819,1190.5,594.4819,1194.5,584.4819,1190.5,588.4819" style="stroke: #A80036; stroke-width: 1.0;"/><line style="stroke: #A80036; stroke-width: 1.5;" x1="1331.5" x2="1358.5" y1="572.4819" y2="572.4819"/><line style="stroke: #A80036; stroke-width: 1.5;" x1="1358.5" x2="1358.5" y1="572.4819" y2="594.4819"/><polygon fill="#A80036" points="1354.5,584.4819,1358.5,594.4819,1362.5,584.4819,1358.5,588.4819" style="stroke: #A80036; stroke-width: 1.0;"/><line style="stroke: #A80036; stroke-width: 1.5;" x1="1190.5" x2="1190.5" y1="628.4507" y2="715.4194"/><line style="stroke: #A80036; stroke-width: 1.5;" x1="1190.5" x2="1262.5" y1="715.4194" y2="715.4194"/><polygon fill="#A80036" points="1252.5,711.4194,1262.5,715.4194,1252.5,719.4194,1256.5,715.4194" style="stroke: #A80036; stroke-width: 1.0;"/><line style="stroke: #A80036; stroke-width: 1.5;" x1="1358.5" x2="1358.5" y1="697.4194" y2="715.4194"/><line style="stroke: #A80036; stroke-width: 1.5;" x1="1358.5" x2="1286.5" y1="715.4194" y2="715.4194"/><polygon fill="#A80036" points="1296.5,711.4194,1286.5,715.4194,1296.5,719.4194,1292.5,715.4194" style="stroke: #A80036; stroke-width: 1.0;"/><line style="stroke: #A80036; stroke-width: 1.5;" x1="1603" x2="1603" y1="584.4819" y2="608.8843"/><polygon fill="#A80036" points="1599,598.8843,1603,608.8843,1607,598.8843,1603,602.8843" style="stroke: #A80036; stroke-width: 1.0;"/><line style="stroke: #A80036; stroke-width: 1.5;" x1="1694" x2="1717.5" y1="572.4819" y2="572.4819"/><polygon fill="#A80036" points="1713.5,622.853,1717.5,632.853,1721.5,622.853,1717.5,626.853" style="stroke: #A80036; stroke-width: 1.5;"/><line style="stroke: #A80036; stroke-width: 1.5;" x1="1717.5" x2="1717.5" y1="572.4819" y2="693.2241"/><line style="stroke: #A80036; stroke-width: 1.5;" x1="1717.5" x2="1615" y1="693.2241" y2="693.2241"/><polygon fill="#A80036" points="1625,689.2241,1615,693.2241,1625,697.2241,1621,693.2241" style="stroke: #A80036; stroke-width: 1.0;"/><line style="stroke: #A80036; stroke-width: 1.5;" x1="1603" x2="1603" y1="656.8218" y2="681.2241"/><polygon fill="#A80036" points="1599,671.2241,1603,681.2241,1607,671.2241,1603,675.2241" style="stroke: #A80036; stroke-width: 1.0;"/><line style="stroke: #A80036; stroke-width: 1.5;" x1="1603" x2="1603" y1="705.2241" y2="740.2241"/><polygon fill="#A80036" points="1599,730.2241,1603,740.2241,1607,730.2241,1603,734.2241" style="stroke: #A80036; stroke-width: 1.0;"/><line style="stroke: #A80036; stroke-width: 1.5;" x1="1603" x2="1603" y1="774.1929" y2="809.1929"/><polygon fill="#A80036" points="1599,799.1929,1603,809.1929,1607,799.1929,1603,803.1929" style="stroke: #A80036; stroke-width: 1.0;"/><line style="stroke: #A80036; stroke-width: 1.5;" x1="1603" x2="1603" y1="843.1616" y2="865.9976"/><polygon fill="#A80036" points="1599,855.9976,1603,865.9976,1607,855.9976,1603,859.9976" style="stroke: #A80036; stroke-width: 1.0;"/><line style="stroke: #A80036; stroke-width: 1.5;" x1="819" x2="819" y1="528.7715" y2="560.4819"/><polygon fill="#A80036" points="815,550.4819,819,560.4819,823,550.4819,819,554.4819" style="stroke: #A80036; stroke-width: 1.0;"/><line style="stroke: #A80036; stroke-width: 1.5;" x1="819" x2="819" y1="1027.9038" y2="1067.4663"/><polygon fill="#A80036" points="815,1057.4663,819,1067.4663,823,1057.4663,819,1061.4663" style="stroke: #A80036; stroke-width: 1.0;"/><line style="stroke: #A80036; stroke-width: 1.5;" x1="1274.5" x2="1274.5" y1="528.7715" y2="560.4819"/><polygon fill="#A80036" points="1270.5,550.4819,1274.5,560.4819,1278.5,550.4819,1274.5,554.4819" style="stroke: #A80036; stroke-width: 1.0;"/><line style="stroke: #A80036; stroke-width: 1.5;" x1="1274.5" x2="1274.5" y1="727.4194" y2="1067.4663"/><polygon fill="#A80036" points="1270.5,1057.4663,1274.5,1067.4663,1278.5,1057.4663,1274.5,1061.4663" style="stroke: #A80036; stroke-width: 1.0;"/><line style="stroke: #A80036; stroke-width: 1.5;" x1="1603" x2="1603" y1="528.7715" y2="560.4819"/><polygon fill="#A80036" points="1599,550.4819,1603,560.4819,1607,550.4819,1603,554.4819" style="stroke: #A80036; stroke-width: 1.0;"/><line style="stroke: #A80036; stroke-width: 1.5;" x1="1603" x2="1603" y1="899.9663" y2="1067.4663"/><polygon fill="#A80036" points="1599,1057.4663,1603,1067.4663,1607,1057.4663,1603,1061.4663" style="stroke: #A80036; stroke-width: 1.0;"/><line style="stroke: #A80036; stroke-width: 1.5;" x1="852" x2="1241.5" y1="516.7715" y2="516.7715"/><polygon fill="#A80036" points="1231.5,512.7715,1241.5,516.7715,1231.5,520.7715,1235.5,516.7715" style="stroke: #A80036; stroke-width: 1.0;"/><line style="stroke: #A80036; stroke-width: 1.5;" x1="1307.5" x2="1570" y1="516.7715" y2="516.7715"/><polygon fill="#A80036" points="1560,512.7715,1570,516.7715,1560,520.7715,1564,516.7715" style="stroke: #A80036; stroke-width: 1.0;"/><line style="stroke: #A80036; stroke-width: 1.5;" x1="1163" x2="1163" y1="459.7715" y2="479.7715"/><line style="stroke: #A80036; stroke-width: 1.5;" x1="1163" x2="819" y1="479.7715" y2="479.7715"/><line style="stroke: #A80036; stroke-width: 1.5;" x1="819" x2="819" y1="479.7715" y2="504.7715"/><polygon fill="#A80036" points="815,494.7715,819,504.7715,823,494.7715,819,498.7715" style="stroke: #A80036; stroke-width: 1.0;"/><line style="stroke: #A80036; stroke-width: 1.5;" x1="1636" x2="1755" y1="516.7715" y2="516.7715"/><line style="stroke: #A80036; stroke-width: 1.5;" x1="1755" x2="1755" y1="516.7715" y2="820.8726"/><polygon fill="#A80036" points="1751,810.8726,1755,820.8726,1759,810.8726,1755,814.8726" style="stroke: #A80036; stroke-width: 1.0;"/><line style="stroke: #A80036; stroke-width: 1.5;" x1="819" x2="1603" y1="1067.4663" y2="1067.4663"/><line style="stroke: #A80036; stroke-width: 1.5;" x1="129.5" x2="129.5" y1="396.6328" y2="429.4375"/><polygon fill="#A80036" points="125.5,419.4375,129.5,429.4375,133.5,419.4375,129.5,423.4375" style="stroke: #A80036; stroke-width: 1.0;"/><line style="stroke: #A80036; stroke-width: 1.5;" x1="129.5" x2="129.5" y1="517.375" y2="1087.4663"/><polygon fill="#A80036" points="125.5,1077.4663,129.5,1087.4663,133.5,1077.4663,129.5,1081.4663" style="stroke: #A80036; stroke-width: 1.0;"/><line style="stroke: #A80036; stroke-width: 1.5;" x1="368" x2="368" y1="396.6328" y2="429.4375"/><polygon fill="#A80036" points="364,419.4375,368,429.4375,372,419.4375,368,423.4375" style="stroke: #A80036; stroke-width: 1.0;"/><line style="stroke: #A80036; stroke-width: 1.5;" x1="368" x2="368" y1="463.4063" y2="1087.4663"/><polygon fill="#A80036" points="364,1077.4663,368,1087.4663,372,1077.4663,368,1081.4663" style="stroke: #A80036; stroke-width: 1.0;"/><line style="stroke: #A80036; stroke-width: 1.5;" x1="207.5" x2="234" y1="384.6328" y2="384.6328"/><polygon fill="#A80036" points="224,380.6328,234,384.6328,224,388.6328,228,384.6328" style="stroke: #A80036; stroke-width: 1.0;"/><line style="stroke: #A80036; stroke-width: 1.5;" x1="924.5" x2="924.5" y1="310.8281" y2="347.6328"/><line style="stroke: #A80036; stroke-width: 1.5;" x1="924.5" x2="129.5" y1="347.6328" y2="347.6328"/><line style="stroke: #A80036; stroke-width: 1.5;" x1="129.5" x2="129.5" y1="347.6328" y2="372.6328"/><polygon fill="#A80036" points="125.5,362.6328,129.5,372.6328,133.5,362.6328,129.5,366.6328" style="stroke: #A80036; stroke-width: 1.0;"/><line style="stroke: #A80036; stroke-width: 1.5;" x1="502" x2="1163" y1="384.6328" y2="384.6328"/><line style="stroke: #A80036; stroke-width: 1.5;" x1="1163" x2="1163" y1="384.6328" y2="411.834"/><polygon fill="#A80036" points="1159,401.834,1163,411.834,1167,401.834,1163,405.834" style="stroke: #A80036; stroke-width: 1.0;"/><line style="stroke: #A80036; stroke-width: 1.5;" x1="1163" x2="1163" y1="1067.4663" y2="1087.4663"/><polygon fill="#A80036" points="1159,1077.4663,1163,1087.4663,1167,1077.4663,1163,1081.4663" style="stroke: #A80036; stroke-width: 1.0;"/><line style="stroke: #A80036; stroke-width: 1.5;" x1="129.5" x2="1163" y1="1087.4663" y2="1087.4663"/><line style="stroke: #A80036; stroke-width: 1.5;" x1="632" x2="632" y1="1401.8877" y2="1436.8877"/><polygon fill="#A80036" points="628,1426.8877,632,1436.8877,636,1426.8877,632,1430.8877" style="stroke: #A80036; stroke-width: 1.0;"/><line style="stroke: #A80036; stroke-width: 1.5;" x1="632" x2="632" y1="1343.5166" y2="1367.9189"/><polygon fill="#A80036" points="628,1357.9189,632,1367.9189,636,1357.9189,632,1361.9189" style="stroke: #A80036; stroke-width: 1.0;"/><line style="stroke: #A80036; stroke-width: 1.5;" x1="701" x2="768.5" y1="1331.5166" y2="1331.5166"/><polygon fill="#A80036" points="764.5,1409.3877,768.5,1419.3877,772.5,1409.3877,768.5,1413.3877" style="stroke: #A80036; stroke-width: 1.5;"/><line style="stroke: #A80036; stroke-width: 1.5;" x1="768.5" x2="768.5" y1="1331.5166" y2="1502.8564"/><line style="stroke: #A80036; stroke-width: 1.5;" x1="768.5" x2="644" y1="1502.8564" y2="1502.8564"/><polygon fill="#A80036" points="654,1498.8564,644,1502.8564,654,1506.8564,650,1502.8564" style="stroke: #A80036; stroke-width: 1.0;"/><line style="stroke: #A80036; stroke-width: 1.5;" x1="632" x2="632" y1="1470.8564" y2="1490.8564"/><polygon fill="#A80036" points="628,1480.8564,632,1490.8564,636,1480.8564,632,1484.8564" style="stroke: #A80036; stroke-width: 1.0;"/><line style="stroke: #A80036; stroke-width: 1.5;" x1="632" x2="632" y1="1299.5166" y2="1319.5166"/><polygon fill="#A80036" points="628,1309.5166,632,1319.5166,636,1309.5166,632,1313.5166" style="stroke: #A80036; stroke-width: 1.0;"/><line style="stroke: #A80036; stroke-width: 1.5;" x1="632" x2="632" y1="1514.8564" y2="1534.8564"/><polygon fill="#A80036" points="628,1524.8564,632,1534.8564,636,1524.8564,632,1528.8564" style="stroke: #A80036; stroke-width: 1.0;"/><line style="stroke: #A80036; stroke-width: 1.5;" x1="1189.5" x2="1189.5" y1="1299.5166" y2="1319.5166"/><polygon fill="#A80036" points="1185.5,1309.5166,1189.5,1319.5166,1193.5,1309.5166,1189.5,1313.5166" style="stroke: #A80036; stroke-width: 1.0;"/><line style="stroke: #A80036; stroke-width: 1.5;" x1="632" x2="632" y1="1233.8374" y2="1265.5479"/><polygon fill="#A80036" points="628,1255.5479,632,1265.5479,636,1255.5479,632,1259.5479" style="stroke: #A80036; stroke-width: 1.0;"/><line style="stroke: #A80036; stroke-width: 1.5;" x1="632" x2="632" y1="1568.8252" y2="1588.8252"/><polygon fill="#A80036" points="628,1578.8252,632,1588.8252,636,1578.8252,632,1582.8252" style="stroke: #A80036; stroke-width: 1.0;"/><line style="stroke: #A80036; stroke-width: 1.5;" x1="922" x2="922" y1="1233.8374" y2="1265.5479"/><polygon fill="#A80036" points="918,1255.5479,922,1265.5479,926,1255.5479,922,1259.5479" style="stroke: #A80036; stroke-width: 1.0;"/><line style="stroke: #A80036; stroke-width: 1.5;" x1="922" x2="922" y1="1299.5166" y2="1588.8252"/><polygon fill="#A80036" points="918,1578.8252,922,1588.8252,926,1578.8252,922,1582.8252" style="stroke: #A80036; stroke-width: 1.0;"/><line style="stroke: #A80036; stroke-width: 1.5;" x1="1189.5" x2="1189.5" y1="1233.8374" y2="1265.5479"/><polygon fill="#A80036" points="1185.5,1255.5479,1189.5,1265.5479,1193.5,1255.5479,1189.5,1259.5479" style="stroke: #A80036; stroke-width: 1.0;"/><line style="stroke: #A80036; stroke-width: 1.5;" x1="1189.5" x2="1189.5" y1="1353.4854" y2="1588.8252"/><polygon fill="#A80036" points="1185.5,1578.8252,1189.5,1588.8252,1193.5,1578.8252,1189.5,1582.8252" style="stroke: #A80036; stroke-width: 1.0;"/><line style="stroke: #A80036; stroke-width: 1.5;" x1="675.5" x2="878.5" y1="1221.8374" y2="1221.8374"/><polygon fill="#A80036" points="868.5,1217.8374,878.5,1221.8374,868.5,1225.8374,872.5,1221.8374" style="stroke: #A80036; stroke-width: 1.0;"/><line style="stroke: #A80036; stroke-width: 1.5;" x1="965.5" x2="1146" y1="1221.8374" y2="1221.8374"/><polygon fill="#A80036" points="1136,1217.8374,1146,1221.8374,1136,1225.8374,1140,1221.8374" style="stroke: #A80036; stroke-width: 1.0;"/><line style="stroke: #A80036; stroke-width: 1.5;" x1="924.5" x2="924.5" y1="1189.8374" y2="1194.8374"/><line style="stroke: #A80036; stroke-width: 1.5;" x1="924.5" x2="632" y1="1194.8374" y2="1194.8374"/><line style="stroke: #A80036; stroke-width: 1.5;" x1="632" x2="632" y1="1194.8374" y2="1209.8374"/><polygon fill="#A80036" points="628,1199.8374,632,1209.8374,636,1199.8374,632,1203.8374" style="stroke: #A80036; stroke-width: 1.0;"/><line style="stroke: #A80036; stroke-width: 1.5;" x1="1233" x2="1351" y1="1221.8374" y2="1221.8374"/><line style="stroke: #A80036; stroke-width: 1.5;" x1="1351" x2="1351" y1="1221.8374" y2="1404.9854"/><polygon fill="#A80036" points="1347,1394.9854,1351,1404.9854,1355,1394.9854,1351,1398.9854" style="stroke: #A80036; stroke-width: 1.0;"/><line style="stroke: #A80036; stroke-width: 1.5;" x1="632" x2="1189.5" y1="1588.8252" y2="1588.8252"/><line style="stroke: #A80036; stroke-width: 1.5;" x1="924.5" x2="924.5" y1="1131.4663" y2="1155.8687"/><polygon fill="#A80036" points="920.5,1145.8687,924.5,1155.8687,928.5,1145.8687,924.5,1149.8687" style="stroke: #A80036; stroke-width: 1.0;"/><line style="stroke: #A80036; stroke-width: 1.5;" x1="951" x2="1376" y1="1119.4663" y2="1119.4663"/><polygon fill="#A80036" points="1372,1371.501,1376,1381.501,1380,1371.501,1376,1375.501" style="stroke: #A80036; stroke-width: 1.5;"/><line style="stroke: #A80036; stroke-width: 1.5;" x1="1376" x2="1376" y1="1119.4663" y2="1620.8252"/><line style="stroke: #A80036; stroke-width: 1.5;" x1="1376" x2="936.5" y1="1620.8252" y2="1620.8252"/><polygon fill="#A80036" points="946.5,1616.8252,936.5,1620.8252,946.5,1624.8252,942.5,1620.8252" style="stroke: #A80036; stroke-width: 1.0;"/><line style="stroke: #A80036; stroke-width: 1.5;" x1="924.5" x2="924.5" y1="1588.8252" y2="1608.8252"/><polygon fill="#A80036" points="920.5,1598.8252,924.5,1608.8252,928.5,1598.8252,924.5,1602.8252" style="stroke: #A80036; stroke-width: 1.0;"/><line style="stroke: #A80036; stroke-width: 1.5;" x1="924.5" x2="924.5" y1="1087.4663" y2="1107.4663"/><polygon fill="#A80036" points="920.5,1097.4663,924.5,1107.4663,928.5,1097.4663,924.5,1101.4663" style="stroke: #A80036; stroke-width: 1.0;"/><line style="stroke: #A80036; stroke-width: 1.5;" x1="924.5" x2="924.5" y1="1632.8252" y2="1642.8252"/><line style="stroke: #A80036; stroke-width: 1.5;" x1="924.5" x2="1780" y1="1642.8252" y2="1642.8252"/><polygon fill="#A80036" points="1776,1047.4663,1780,1037.4663,1784,1047.4663,1780,1043.4663" style="stroke: #A80036; stroke-width: 1.5;"/><line style="stroke: #A80036; stroke-width: 1.5;" x1="1780" x2="1780" y1="298.8281" y2="1642.8252"/><line style="stroke: #A80036; stroke-width: 1.5;" x1="1780" x2="976.5" y1="298.8281" y2="298.8281"/><polygon fill="#A80036" points="986.5,294.8281,976.5,298.8281,986.5,302.8281,982.5,298.8281" style="stroke: #A80036; stroke-width: 1.0;"/><line style="stroke: #A80036; stroke-width: 1.5;" x1="872.5" x2="24" y1="298.8281" y2="298.8281"/><line style="stroke: #A80036; stroke-width: 1.5;" x1="24" x2="24" y1="298.8281" y2="334.8281"/><polygon fill="#A80036" points="20,324.8281,24,334.8281,28,324.8281,24,328.8281" style="stroke: #A80036; stroke-width: 1.0;"/><line style="stroke: #A80036; stroke-width: 1.5;" x1="924.5" x2="924.5" y1="266.8281" y2="286.8281"/><polygon fill="#A80036" points="920.5,276.8281,924.5,286.8281,928.5,276.8281,924.5,280.8281" style="stroke: #A80036; stroke-width: 1.0;"/><!--MD5=[e9ad3964c68a0bf29aea377b6fe0e64c]
@startuml
title Application: from start to exit (main.cpp)
start
:Read ~- -load and ~- -seed from the command line;
:gameSettings::load() reads settings.json;
:Install crash log (crash-<date>.log in the save folder);
:Create presenter, load skins, sounds, fonts;
while (window open?) is (yes)
  if (saving failed last time?) then (yes)
    :Back to the same game;
    :play = true;
  elseif (first loop, ~- -load given and the save loads?) then (yes)
    :play = true;
  else (title screen)
    :titleMenu waits for a choice\n(demo after demoWait + rand(demoWait) s);
    if (choice?) then (DEMO: nobody pressed anything)
      :Fresh world with a random seed;
      :worldBuilder::movePlayerTo(a chunk 23-63 chunks out);
      :presentEverything(demo, demoLength)\nautopilot plays, nothing is saved;
      :Clear the world, restore the seed;
      if (how did the demo end?) then (time is up: DEMO_DONE)
        :Show the hall of fame for hallOfFameLength s;
      elseif (a key, button or stick: DEMO_OVER) then (yes)
      else (window closed)
        stop
      endif
      :play = false (back to the title);
    elseif (choice?) then (CONTINUE)
      if (the save loads?) then (yes)
        :play = true;
      else (no)
        :Show "Cannot continue";
        :play = false (back to the title);
      endif
    elseif (choice?) then (START)
      if (a game was played before?) then (yes)
        :Clear the old world, new seed\n(the ~- -seed one again if given);
      endif
      :worldBuilder::startNew();
      :Move the old save aside (replaceSave);
      :play = true;
    else (EXIT)
      stop
    endif
  endif
  if (play?) then (yes)
    :presentEverything(false);
    if (game end?) then (LOST)
      :Delete the lost game's save;
      if (score in the top 10?) then (yes)
        :Ask the player's name;
        :hallOfFame.add, save halloffame.json;
      endif
      :Show the hall of fame, new entry highlighted;
    elseif (game end?) then (SAVED)
      :Back to the title, Continue resumes;
    elseif (game end?) then (SAVE_FAILED)
      :Show "The game could not be saved";
      :Next loop goes back to the game;
    else (QUIT)
      stop
    endif
  endif
endwhile (no)
stop
@enduml

PlantUML version 1.2020.02(Sun Mar 01 10:22:07 UTC 2020)
(GPL source distribution)
Java Runtime: OpenJDK Runtime Environment
JVM: OpenJDK 64-Bit Server VM
Java Version: 21.0.11+10-1-24.04.2-Ubuntu
Operating System: Linux
Default Encoding: UTF-8
Language: en
Country: US
--></g></svg>