<svg xmlns="http://www.w3.org/2000/svg" xmlns:xlink="http://www.w3.org/1999/xlink" contentStyleType="text/css" data-diagram-type="STATE" height="682px" preserveAspectRatio="none" style="width:1561px;height:682px;background:#FFFFFF;" version="1.1" viewBox="0 0 1561 682" width="1561px" zoomAndPan="magnify"><title>Title screen states (titleMenu, titleScreen)</title><defs/><g><g class="title" data-source-line="1"><text fill="#000000" font-family="sans-serif" font-size="14" font-weight="bold" lengthAdjust="spacing" textLength="336.9912" x="605.2994" y="22.9951">Title screen states (titleMenu, titleScreen)</text></g><g class="entity" data-entity="padNote" data-source-line="3" data-uid="ent0002" id="entity_padNote"><path d="M410.5,43.2969 L410.5,98.6953 L775.0098,98.6953 L775.0098,53.2969 L765.0098,43.2969 L410.5,43.2969" fill="#FEFFDD" style="stroke:#181818;stroke-width:0.5;"/><path d="M765.0098,43.2969 L765.0098,53.2969 L775.0098,53.2969 L765.0098,43.2969" fill="#FEFFDD" style="stroke:#181818;stroke-width:1;"/><text fill="#000000" font-family="sans-serif" font-size="13" lengthAdjust="spacing" textLength="272.0225" x="416.5" y="60.3638">Keys and pad alike: stick or d-pad moves,</text><text fill="#000000" font-family="sans-serif" font-size="13" lengthAdjust="spacing" textLength="343.5098" x="416.5" y="75.4966">Interact button = Enter, Drag or Save and exit = Esc</text><text fill="#000000" font-family="sans-serif" font-size="13" lengthAdjust="spacing" textLength="165.1851" x="416.5" y="90.6294">(goe::controls::menuPad)</text></g><g id="MAIN"><rect fill="#F1F1F1" height="64.2344" rx="12.5" ry="12.5" style="stroke:#181818;stroke-width:0.5;" width="201.459" x="719.5" y="159.2969"/><line style="stroke:#181818;stroke-width:0.5;" x1="719.5" x2="920.959" y1="185.5938" y2="185.5938"/><text fill="#000000" font-family="sans-serif" font-size="14" lengthAdjust="spacing" textLength="36.2578" x="802.1006" y="177.292">MAIN</text><text fill="#000000" font-family="sans-serif" font-size="12" lengthAdjust="spacing" textLength="181.459" x="724.5" y="201.7324">Continue (when a save exists)</text><text fill="#000000" font-family="sans-serif" font-size="12" lengthAdjust="spacing" textLength="105.7969" x="724.5" y="215.7012">Start, Config, Exit</text></g><g id="CONFIG"><rect fill="#F1F1F1" height="64.2344" rx="12.5" ry="12.5" style="stroke:#181818;stroke-width:0.5;" width="196.5605" x="188.5" y="315.2969"/><line style="stroke:#181818;stroke-width:0.5;" x1="188.5" x2="385.0605" y1="341.5938" y2="341.5938"/><text fill="#000000" font-family="sans-serif" font-size="14" lengthAdjust="spacing" textLength="54.2979" x="259.6313" y="333.292">CONFIG</text><text fill="#000000" font-family="sans-serif" font-size="12" lengthAdjust="spacing" textLength="157.7109" x="193.5" y="357.7324">save folder, music, sound,</text><text fill="#000000" font-family="sans-serif" font-size="12" lengthAdjust="spacing" textLength="176.5605" x="193.5" y="371.7012">stories, demo times, Controls</text></g><g id="EDITING"><rect fill="#F1F1F1" height="50.2656" rx="12.5" ry="12.5" style="stroke:#181818;stroke-width:0.5;" width="255.5762" x="7" y="485.2969"/><line style="stroke:#181818;stroke-width:0.5;" x1="7" x2="262.5762" y1="511.5938" y2="511.5938"/><text fill="#000000" font-family="sans-serif" font-size="14" lengthAdjust="spacing" textLength="57.7568" x="105.9097" y="503.292">EDITING</text><text fill="#000000" font-family="sans-serif" font-size="12" lengthAdjust="spacing" textLength="235.5762" x="12" y="527.7324">typing a value (save folder, stories file)</text></g><g id="CONTROLS"><rect fill="#F1F1F1" height="50.2656" rx="12.5" ry="12.5" style="stroke:#181818;stroke-width:0.5;" width="149.0234" x="347.5" y="485.2969"/><line style="stroke:#181818;stroke-width:0.5;" x1="347.5" x2="496.5234" y1="511.5938" y2="511.5938"/><text fill="#000000" font-family="sans-serif" font-size="14" lengthAdjust="spacing" textLength="77.2529" x="383.3853" y="503.292">CONTROLS</text><text fill="#000000" font-family="sans-serif" font-size="12" lengthAdjust="spacing" textLength="129.0234" x="352.5" y="527.7324">key and pad bindings</text></g><g id="BINDING"><rect fill="#F1F1F1" height="50.2656" rx="12.5" ry="12.5" style="stroke:#181818;stroke-width:0.5;" width="206.3809" x="323" y="626.2969"/><line style="stroke:#181818;stroke-width:0.5;" x1="323" x2="529.3809" y1="652.5938" y2="652.5938"/><text fill="#000000" font-family="sans-serif" font-size="14" lengthAdjust="spacing" textLength="60.4365" x="395.9722" y="644.292">BINDING</text><text fill="#000000" font-family="sans-serif" font-size="12" lengthAdjust="spacing" textLength="186.3809" x="328" y="668.7324">waiting for a key or pad button</text></g><g id="Demo"><rect fill="#F1F1F1" height="50.2656" rx="12.5" ry="12.5" style="stroke:#181818;stroke-width:0.5;" width="180.4824" x="596" y="322.2969"/><line style="stroke:#181818;stroke-width:0.5;" x1="596" x2="776.4824" y1="348.5938" y2="348.5938"/><text fill="#000000" font-family="sans-serif" font-size="14" lengthAdjust="spacing" textLength="41.5967" x="665.4429" y="340.292">Demo</text><text fill="#000000" font-family="sans-serif" font-size="12" lengthAdjust="spacing" textLength="160.4824" x="601" y="364.7324">autopilot plays a far chunk</text></g><g id="HallOfFame"><rect fill="#F1F1F1" height="50.2656" rx="12.5" ry="12.5" style="stroke:#181818;stroke-width:0.5;" width="249.418" x="970.5" y="626.2969"/><line style="stroke:#181818;stroke-width:0.5;" x1="970.5" x2="1219.918" y1="652.5938" y2="652.5938"/><text fill="#000000" font-family="sans-serif" font-size="14" lengthAdjust="spacing" textLength="81.7168" x="1054.3506" y="644.292">HallOfFame</text><text fill="#000000" font-family="sans-serif" font-size="12" lengthAdjust="spacing" textLength="229.418" x="975.5" y="668.7324">top 10, shown for hallOfFameLength s</text></g><g id="Game"><rect fill="#F1F1F1" height="50.2656" rx="12.5" ry="12.5" style="stroke:#181818;stroke-width:0.5;" width="168.7578" x="977.5" y="322.2969"/><line style="stroke:#181818;stroke-width:0.5;" x1="977.5" x2="1146.2578" y1="348.5938" y2="348.5938"/><text fill="#000000" font-family="sans-serif" font-size="14" lengthAdjust="spacing" textLength="41.6787" x="1041.0396" y="340.292">Game</text><text fill="#000000" font-family="sans-serif" font-size="12" lengthAdjust="spacing" textLength="148.7578" x="982.5" y="364.7324">presentEverything(false)</text></g><g id="GameOver"><rect fill="#F1F1F1" height="78.2031" rx="12.5" ry="12.5" style="stroke:#181818;stroke-width:0.5;" width="260.5684" x="964.5" y="471.2969"/><line style="stroke:#181818;stroke-width:0.5;" x1="964.5" x2="1225.0684" y1="497.5938" y2="497.5938"/><text fill="#000000" font-family="sans-serif" font-size="14" lengthAdjust="spacing" textLength="75.3525" x="1057.1079" y="489.292">GameOver</text><text fill="#000000" font-family="sans-serif" font-size="12" lengthAdjust="spacing" textLength="219.8789" x="969.5" y="513.7324">name entry when the score qualifies</text><text fill="#000000" font-family="sans-serif" font-size="12" lengthAdjust="spacing" textLength="240.5684" x="969.5" y="527.7012">(typed, or with the pad: Up/Down letter,</text><text fill="#000000" font-family="sans-serif" font-size="12" lengthAdjust="spacing" textLength="155.4609" x="969.5" y="541.6699">Right adds, Left removes)</text></g><ellipse cx="820" cy="70.7969" fill="#222222" rx="10" ry="10" style="stroke:#222222;stroke-width:1;"/><ellipse cx="1192" cy="347.2969" fill="none" rx="11" ry="11" style="stroke:#222222;stroke-width:1;"/><ellipse cx="1192" cy="347.2969" fill="#222222" rx="6" ry="6" style="stroke:#222222;stroke-width:1;"/><!--link *start* to MAIN--><g class="link" data-entity-1=".start." data-entity-2="MAIN" data-source-line="2" data-uid="lnk3" id="link_.start._MAIN"><path d="M820,81.0969 C820,97.6869 820,127.0669 820,153.0869" fill="none" id="*start*-to-MAIN" style="stroke:#181818;stroke-width:1;"/><polygon fill="#181818" points="820,159.0869,824,150.0869,820,154.0869,816,150.0869,820,159.0869" style="stroke:#181818;stroke-width:1;"/></g><!--link MAIN to CONFIG--><g class="link" data-entity-1="MAIN" data-entity-2="CONFIG" data-source-line="14" data-uid="lnk4" id="link_MAIN_CONFIG"><path d="M719.3,195.7569 C562.39,202.1869 274.21,218.6169 243,253.2969 C226.99,271.0869 236.0111,291.0845 251.8511,310.5345" fill="none" id="MAIN-to-CONFIG" style="stroke:#181818;stroke-width:1;"/><polygon fill="#181818" points="255.64,315.1869,253.0583,305.6824,252.4826,311.3099,246.8551,310.7342,255.64,315.1869" style="stroke:#181818;stroke-width:1;"/><text fill="#000000" font-family="sans-serif" font-size="13" lengthAdjust="spacing" textLength="41.7104" x="244" y="273.8638">Config</text></g><!--link CONFIG to MAIN--><g class="link" data-entity-1="CONFIG" data-entity-2="MAIN" data-source-line="15" data-uid="lnk5" id="link_CONFIG_MAIN"><path d="M298.78,315.1569 C308.44,294.1269 324.25,267.6569 347,253.2969 C407.08,215.3769 593.2061,201.1478 713.3161,195.7178" fill="none" id="CONFIG-to-MAIN" style="stroke:#181818;stroke-width:1;"/><polygon fill="#181818" points="719.31,195.4469,710.1385,191.8574,714.3151,195.6727,710.4998,199.8493,719.31,195.4469" style="stroke:#181818;stroke-width:1;"/><text fill="#000000" font-family="sans-serif" font-size="13" lengthAdjust="spacing" textLength="66.3394" x="348" y="273.8638">Back / Esc</text></g><!--link CONFIG to EDITING--><g class="link" data-entity-1="CONFIG" data-entity-2="EDITING" data-source-line="16" data-uid="lnk6" id="link_CONFIG_EDITING"><path d="M188.37,359.7269 C126.57,369.1469 55.12,384.9669 36,409.2969 C14.03,437.2469 43.7965,462.7747 78.0865,482.1547" fill="none" id="CONFIG-to-EDITING" style="stroke:#181818;stroke-width:1;"/><polygon fill="#181818" points="83.31,485.1069,77.4429,477.1963,78.9571,482.6467,73.5067,484.1609,83.31,485.1069" style="stroke:#181818;stroke-width:1;"/><text fill="#000000" font-family="sans-serif" font-size="13" lengthAdjust="spacing" textLength="124.9282" x="38.8662" y="422.3638">Enter on a text line</text><text fill="#000000" font-family="sans-serif" font-size="13" lengthAdjust="spacing" textLength="128.6606" x="37" y="437.4966">(a pad cannot type)</text></g><!--link EDITING to CONFIG--><g class="link" data-entity-1="EDITING" data-entity-2="CONFIG" data-source-line="17" data-uid="lnk7" id="link_EDITING_CONFIG"><path d="M148.61,485.0069 C161.27,463.6469 181.52,432.4569 204,409.2969 C214.46,398.5169 222.1729,391.8104 234.2829,382.8704" fill="none" id="EDITING-to-CONFIG" style="stroke:#181818;stroke-width:1;"/><polygon fill="#181818" points="239.11,379.3069,229.4936,381.4341,235.0874,382.2765,234.245,387.8703,239.11,379.3069" style="stroke:#181818;stroke-width:1;"/><text fill="#000000" font-family="sans-serif" font-size="13" lengthAdjust="spacing" textLength="125.3662" x="205" y="429.8638">Enter (stored) / Esc</text></g><!--link CONFIG to CONTROLS--><g class="link" data-entity-1="CONFIG" data-entity-2="CONTROLS" data-source-line="18" data-uid="lnk8" id="link_CONFIG_CONTROLS"><path d="M313.03,379.3369 C338.93,410.2269 374.2645,452.3696 397.9145,480.5696" fill="none" id="CONFIG-to-CONTROLS" style="stroke:#181818;stroke-width:1;"/><polygon fill="#181818" points="401.77,485.1669,399.0516,475.7006,398.5571,481.3358,392.9219,480.8413,401.77,485.1669" style="stroke:#181818;stroke-width:1;"/><text fill="#000000" font-family="sans-serif" font-size="13" lengthAdjust="spacing" textLength="54.0503" x="364" y="429.8638">Controls</text></g><!--link CONTROLS to CONFIG--><g class="link" data-entity-1="CONTROLS" data-entity-2="CONFIG" data-source-line="21" data-uid="lnk11" id="link_CONTROLS_CONFIG"><path d="M430.74,484.9869 C436.88,463.3269 441.67,431.6869 427,409.2969 C416.9,393.8869 407.2784,385.1435 390.8784,376.5035" fill="none" id="CONTROLS-to-CONFIG" style="stroke:#181818;stroke-width:1;"/><polygon fill="#181818" points="385.57,373.7069,391.6682,381.4407,389.9937,376.0374,395.397,374.3629,385.57,373.7069" style="stroke:#181818;stroke-width:1;"/><text fill="#000000" font-family="sans-serif" font-size="13" lengthAdjust="spacing" textLength="31.5605" x="438" y="429.8638">Back</text></g><!--link CONTROLS to BINDING--><g class="link" data-entity-1="CONTROLS" data-entity-2="BINDING" data-source-line="19" data-uid="lnk9" id="link_CONTROLS_BINDING"><path d="M374.58,535.4569 C350.69,551.1169 329.23,572.9069 342,596.2969 C348.65,608.4669 354.361,614.9588 365.931,622.7388" fill="none" id="CONTROLS-to-BINDING" style="stroke:#181818;stroke-width:1;"/><polygon fill="#181818" points="370.91,626.0869,365.6735,617.7455,366.7608,623.2968,361.2094,624.3842,370.91,626.0869" style="stroke:#181818;stroke-width:1;"/><text fill="#000000" font-family="sans-serif" font-size="13" lengthAdjust="spacing" textLength="119.7041" x="343" y="592.3638">Enter on an action</text></g><!--link BINDING to CONTROLS--><g class="link" data-entity-1="BINDING" data-entity-2="CONTROLS" data-source-line="20" data-uid="lnk10" id="link_BINDING_CONTROLS"><path d="M451.79,626.2969 C462.78,613.1069 472.04,596.0669 467,579.2969 C462.19,563.2969 455.8749,552.3881 446.5649,540.1081" fill="none" id="BINDING-to-CONTROLS" style="stroke:#181818;stroke-width:1;"/><polygon fill="#181818" points="442.94,535.3269,445.1898,544.9153,445.9607,539.3112,451.5648,540.0822,442.94,535.3269" style="stroke:#181818;stroke-width:1;"/><text fill="#000000" font-family="sans-serif" font-size="13" lengthAdjust="spacing" textLength="143.1841" x="470" y="592.3638">key or button pressed</text></g><!--link MAIN to Demo--><g class="link" data-entity-1="MAIN" data-entity-2="Demo" data-source-line="22" data-uid="lnk12" id="link_MAIN_Demo"><path d="M719.34,193.9169 C617.49,197.9369 470.03,211.1269 434,253.2969 C383.71,312.1569 498.6225,333.2672 589.8425,341.1972" fill="none" id="MAIN-to-Demo" style="stroke:#181818;stroke-width:1;"/><polygon fill="#181818" points="595.82,341.7169,587.2002,336.9524,590.8388,341.2838,586.5074,344.9224,595.82,341.7169" style="stroke:#181818;stroke-width:1;"/><text fill="#000000" font-family="sans-serif" font-size="13" lengthAdjust="spacing" textLength="230.4072" x="435" y="273.8638">idle demoWait + rand(demoWait) s</text></g><!--link Demo to MAIN--><g class="link" data-entity-1="Demo" data-entity-2="MAIN" data-source-line="23" data-uid="lnk13" id="link_Demo_MAIN"><path d="M685.76,322.2469 C686.73,301.9969 690.99,273.2169 706,253.2969 C715.05,241.2869 722.0774,234.5595 735.0474,226.4795" fill="none" id="Demo-to-MAIN" style="stroke:#181818;stroke-width:1;"/><polygon fill="#181818" points="740.14,223.3069,730.386,224.6707,735.8962,225.9507,734.6161,231.4608,740.14,223.3069" style="stroke:#181818;stroke-width:1;"/><text fill="#000000" font-family="sans-serif" font-size="13" lengthAdjust="spacing" textLength="130.9966" x="731.5242" y="266.3638">any key, pad button</text><text fill="#000000" font-family="sans-serif" font-size="13" lengthAdjust="spacing" textLength="180.0449" x="707" y="281.4966">or stick push (DEMO_OVER)</text></g><!--link Demo to HallOfFame--><g class="link" data-entity-1="Demo" data-entity-2="HallOfFame" data-source-line="24" data-uid="lnk14" id="link_Demo_HallOfFame"><path d="M680.18,372.3469 C671.71,413.7669 661.27,498.9369 704,549.2969 C738.42,589.8569 863.4944,616.8751 964.4844,632.9251" fill="none" id="Demo-to-HallOfFame" style="stroke:#181818;stroke-width:1;"/><polygon fill="#181818" points="970.41,633.8669,962.1494,628.5038,965.472,633.0821,960.8937,636.4047,970.41,633.8669" style="stroke:#181818;stroke-width:1;"/><text fill="#000000" font-family="sans-serif" font-size="13" lengthAdjust="spacing" textLength="241.6172" x="705" y="514.8638">demoLength s passed (DEMO_DONE)</text></g><!--link HallOfFame to MAIN--><g class="link" data-entity-1="HallOfFame" data-entity-2="MAIN" data-source-line="25" data-uid="lnk15" id="link_HallOfFame_MAIN"><path d="M1219.74,632.2869 C1239.98,624.2269 1258.9,612.7069 1273,596.2969 C1554.59,268.6769 1349.83,289.2669 1318,253.2969 C1292.15,224.0869 1064.6492,206.2469 926.7492,197.9569" fill="none" id="HallOfFame-to-MAIN" style="stroke:#181818;stroke-width:1;"/><polygon fill="#181818" points="920.76,197.5969,929.5038,202.1297,925.751,197.8969,929.9838,194.1442,920.76,197.5969" style="stroke:#181818;stroke-width:1;"/><text fill="#000000" font-family="sans-serif" font-size="13" lengthAdjust="spacing" textLength="135.3955" x="1403" y="429.8638">timeout or any press</text></g><!--link MAIN to Game--><g class="link" data-entity-1="MAIN" data-entity-2="Game" data-source-line="26" data-uid="lnk16" id="link_MAIN_Game"><path d="M857.14,223.4769 C868.39,232.9969 880.74,243.5269 892,253.2969 C908.17,267.3269 910.06,273.6169 928,285.2969 C949.96,299.5869 970.3134,309.8341 993.4234,319.8341" fill="none" id="MAIN-to-Game" style="stroke:#181818;stroke-width:1;"/><polygon fill="#181818" points="998.93,322.2169,992.2586,314.9717,994.3412,320.2312,989.0816,322.3138,998.93,322.2169" style="stroke:#181818;stroke-width:1;"/><text fill="#000000" font-family="sans-serif" font-size="13" lengthAdjust="spacing" textLength="102.8574" x="929" y="273.8638">Start / Continue</text></g><!--link Game to MAIN--><g class="link" data-entity-1="Game" data-entity-2="MAIN" data-source-line="27" data-uid="lnk17" id="link_Game_MAIN"><path d="M1061.56,322.0669 C1059.86,301.1269 1054.11,271.4569 1036,253.2969 C1005.59,222.8069 967.0822,208.4089 926.4322,200.5989" fill="none" id="Game-to-MAIN" style="stroke:#181818;stroke-width:1;"/><polygon fill="#181818" points="920.54,199.4669,928.6236,205.0931,925.4502,200.4103,930.1331,197.2368,920.54,199.4669" style="stroke:#181818;stroke-width:1;"/><text fill="#000000" font-family="sans-serif" font-size="13" lengthAdjust="spacing" textLength="75.0928" x="1056" y="273.8638">Esc (saved)</text></g><!--link Game to GameOver--><g class="link" data-entity-1="Game" data-entity-2="GameOver" data-source-line="28" data-uid="lnk18" id="link_Game_GameOver"><path d="M1066.94,372.3969 C1072.3,398.5369 1079.7145,434.7492 1085.9945,465.3692" fill="none" id="Game-to-GameOver" style="stroke:#181818;stroke-width:1;"/><polygon fill="#181818" points="1087.2,471.2469,1089.3102,461.6267,1086.1954,466.3488,1081.4733,463.234,1087.2,471.2469" style="stroke:#181818;stroke-width:1;"/><text fill="#000000" font-family="sans-serif" font-size="13" lengthAdjust="spacing" textLength="97.1826" x="1082" y="429.8638">last avatar lost</text></g><!--link GameOver to HallOfFame--><g class="link" data-entity-1="GameOver" data-entity-2="HallOfFame" data-source-line="29" data-uid="lnk19" id="link_GameOver_HallOfFame"><path d="M1095,549.6469 C1095,574.0769 1095,598.9769 1095,620.0569" fill="none" id="GameOver-to-HallOfFame" style="stroke:#181818;stroke-width:1;"/><polygon fill="#181818" points="1095,626.0569,1099,617.0569,1095,621.0569,1091,617.0569,1095,626.0569" style="stroke:#181818;stroke-width:1;"/><text fill="#000000" font-family="sans-serif" font-size="13" lengthAdjust="spacing" textLength="168.5239" x="1096" y="592.3638">shown with the new entry</text></g><!--link MAIN to *end*--><g class="link" data-entity-1="MAIN" data-entity-2=".end." data-source-line="30" data-uid="lnk21" id="link_MAIN_.end."><path d="M920.66,202.1569 C1000.95,211.6969 1105.48,228.4069 1140,253.2969 C1169.26,274.3969 1182.4974,311.5304 1187.9074,330.7904" fill="none" id="MAIN-to-*end*" style="stroke:#181818;stroke-width:1;"/><polygon fill="#181818" points="1189.53,336.5669,1190.9471,326.8205,1188.1779,331.7532,1183.2452,328.9839,1189.53,336.5669" style="stroke:#181818;stroke-width:1;"/><text fill="#000000" font-family="sans-serif" font-size="13" lengthAdjust="spacing" textLength="141.3687" x="1168" y="273.8638">Exit or window closed</text></g><!--SRC=[PLHTRzim37ptho3w56ykkhqQs82rIRjWRJ8qtVQm38DgqR4GH_8iEcd-_KZvAsc18B1DydZadKI6IeIdyE-p6j629qNeOKBoyG5jaq1uN8Lm7Fr-zmSkBp_3mvVv8hAE42w-uT63iXegfK6LPeifmvXi2wu6VIbVTswFFbdRkIMiLKRmt10v2vzW9byIcDPg8-ahjSU0XI-69EopjPri7APfvYpLhlHfkcDQtvMEBq1vQRfW6b4W7cX12ZUSQso3C3aKF9G2BxYCwSd7QxiYLLCYMRdP933ZNbtzpN9nExzZX52Gkr8BkrtZJPQ0TutLF8KdLnkU1pJk7Azd9yyt7RqEQ3QTFyqNWaJ7ojWDSzYhKXYT8NTGa9iIuv73q-FoViMrMpmEctqsLZDGt-1wlfYs3GxAa7J8UNygbF13g0XBxlAdmZK5rP2hJEa8gbA9Rf2h6hAYiTikyQigosL-gtOev5q57pympy8TREXG3E5xj1ige2TqrrPKDNgqDDjZVQI2UKroLVfXECbQSemphHHmQds4e18Lua9N8_nhs4OvxuMrv_MXJcIaW-5kaiIpfV2ZkfeAfn997BIsZsPJ42YjMOnxp0bg3BQBeoYuGbmxoDjA7tNllQ4vSAtOjrVYkzFWg6RmApZn5E4BGMaiCaiL5fufoqT25ETv-vgplctvH6H77RzjTABzOAZXcoICiezC-9UHOQNxu2kapXBTcHE1FEfps86Wp3_kgpEDqNn1YDb_iTNWFTJioKd_7hC3Gjx95fKzIjVan8PhonJQQw5gV06JwUnX-NVvS_OOZ-LdtfC6lSSOI4XtLTFbOXP79yadhUKukePaO64HfXq7wamQBW3UVdzFH7UlK5YMzgJgU8oTUBTKdhssLum3fVCK3R4tOxH7Pp2lnKDh-f6KtAbfk8LQcrlj3f0nBEh_]--></g></svg>