<svg xmlns="http://www.w3.org/2000/svg" xmlns:xlink="http://www.w3.org/1999/xlink" contentStyleType="text/css" height="1346px" preserveAspectRatio="none" style="width:1982px;height:1346px;background:#FFFFFF;" version="1.1" viewBox="0 0 1982 1346" width="1982px" zoomAndPan="magnify"><title>The adaptive musician: layers and the audio boundary</title><defs/><g><text fill="#000000" font-family="sans-serif" font-size="14" font-weight="bold" lengthAdjust="spacing" textLength="430.5957" x="769.0521" y="22.9951">The adaptive musician: layers and the audio boundary</text><!--cluster Game (game thread)--><g id="cluster_Game (game thread)"><path d="M8.5,43.2969 L173.1455,43.2969 A3.75,3.75 0 0 1 175.6455,45.7969 L182.6455,65.5938 L1061.5,65.5938 A2.5,2.5 0 0 1 1064,68.0938 L1064,380.7969 A2.5,2.5 0 0 1 1061.5,383.2969 L8.5,383.2969 A2.5,2.5 0 0 1 6,380.7969 L6,45.7969 A2.5,2.5 0 0 1 8.5,43.2969 " fill="none" style="stroke:#000000;stroke-width:1.5;"/><line style="stroke:#000000;stroke-width:1.5;" x1="6" x2="182.6455" y1="65.5938" y2="65.5938"/><text fill="#000000" font-family="sans-serif" font-size="14" font-weight="bold" lengthAdjust="spacing" textLength="163.6455" x="10" y="58.292">Game (game thread)</text></g><!--cluster Adaptive musician (no game headers)--><g id="cluster_Adaptive musician (no game headers)"><path d="M1121.5,564.2969 L1422.2285,564.2969 A3.75,3.75 0 0 1 1424.7285,566.7969 L1431.7285,586.5938 L1932.5,586.5938 A2.5,2.5 0 0 1 1935,589.0938 L1935,1336.7969 A2.5,2.5 0 0 1 1932.5,1339.2969 L1121.5,1339.2969 A2.5,2.5 0 0 1 1119,1336.7969 L1119,566.7969 A2.5,2.5 0 0 1 1121.5,564.2969 " fill="none" style="stroke:#000000;stroke-width:1.5;"/><line style="stroke:#000000;stroke-width:1.5;" x1="1119" x2="1431.7285" y1="586.5938" y2="586.5938"/><text fill="#000000" font-family="sans-serif" font-size="14" font-weight="bold" lengthAdjust="spacing" textLength="299.7285" x="1123" y="579.292">Adaptive musician (no game headers)</text></g><!--cluster Game audio engine (sound thread)--><g id="cluster_Game audio engine (sound thread)"><path d="M1090.5,244.2969 L1366.8447,244.2969 A3.75,3.75 0 0 1 1369.3447,246.7969 L1376.3447,266.5938 L1376.5,266.5938 A2.5,2.5 0 0 1 1379,269.0938 L1379,512.7969 A2.5,2.5 0 0 1 1376.5,515.2969 L1090.5,515.2969 A2.5,2.5 0 0 1 1088,512.7969 L1088,246.7969 A2.5,2.5 0 0 1 1090.5,244.2969 " fill="none" style="stroke:#000000;stroke-width:1.5;"/><line style="stroke:#000000;stroke-width:1.5;" x1="1088" x2="1376.3447" y1="266.5938" y2="266.5938"/><text fill="#000000" font-family="sans-serif" font-size="14" font-weight="bold" lengthAdjust="spacing" textLength="275.3447" x="1092" y="259.292">Game audio engine (sound thread)</text></g><!--entity pres--><g id="elem_pres"><rect fill="#F1F1F1" height="52.5938" rx="2.5" ry="2.5" style="stroke:#181818;stroke-width:0.5;" width="269.293" x="778.5" y="105.2969"/><text fill="#000000" font-family="sans-serif" font-size="14" lengthAdjust="spacing" textLength="67.8945" x="788.5" y="128.292">presenter</text><text fill="#000000" font-family="sans-serif" font-size="14" lengthAdjust="spacing" textLength="249.293" x="788.5" y="144.5889">followDifficulty(D), followSituation()</text></g><!--entity cues--><g id="elem_cues"><rect fill="#F1F1F1" height="52.5938" rx="2.5" ry="2.5" style="stroke:#181818;stroke-width:0.5;" width="289.7529" x="673" y="306.2969"/><text fill="#000000" font-family="sans-serif" font-size="14" lengthAdjust="spacing" textLength="118.8018" x="683" y="329.292">goe::music::cues</text><text fill="#000000" font-family="sans-serif" font-size="14" lengthAdjust="spacing" textLength="269.7529" x="683" y="345.5889">sighted, chased, endangered -&gt; now()</text></g><!--entity cam--><g id="elem_cam"><rect fill="#F1F1F1" height="36.2969" rx="2.5" ry="2.5" style="stroke:#181818;stroke-width:0.5;" width="130.8379" x="612.5" y="113.7969"/><text fill="#000000" font-family="sans-serif" font-size="14" lengthAdjust="spacing" textLength="110.8379" x="622.5" y="136.792">securityCamera</text></g><!--entity guard--><g id="elem_guard"><rect fill="#F1F1F1" height="36.2969" rx="2.5" ry="2.5" style="stroke:#181818;stroke-width:0.5;" width="181.7314" x="395" y="113.7969"/><text fill="#000000" font-family="sans-serif" font-size="14" lengthAdjust="spacing" textLength="161.7314" x="405" y="136.792">puppetMasterGuardian</text></g><!--entity menu--><g id="elem_menu"><rect fill="#F1F1F1" height="68.8906" rx="2.5" ry="2.5" style="stroke:#181818;stroke-width:0.5;" width="337.4678" x="22.5" y="97.2969"/><text fill="#000000" font-family="sans-serif" font-size="14" lengthAdjust="spacing" textLength="115.1787" x="32.5" y="120.292">titleMenu Config</text><text fill="#000000" font-family="sans-serif" font-size="14" lengthAdjust="spacing" textLength="229.5371" x="32.5" y="136.5889">Music: Skin samples / Performer,</text><text fill="#000000" font-family="sans-serif" font-size="14" lengthAdjust="spacing" textLength="317.4678" x="32.5" y="152.8857">Performer sound, Music variety, Music tempo</text></g><!--entity settings--><g id="elem_settings"><rect fill="#F1F1F1" height="68.8906" rx="2.5" ry="2.5" style="stroke:#181818;stroke-width:0.5;" width="292.7881" x="304.5" y="298.2969"/><text fill="#000000" font-family="sans-serif" font-size="14" lengthAdjust="spacing" textLength="97.1387" x="314.5" y="321.292">gameSettings</text><text fill="#000000" font-family="sans-serif" font-size="14" lengthAdjust="spacing" textLength="272.7881" x="314.5" y="337.5889">music, musicVolume, performerSound,</text><text fill="#000000" font-family="sans-serif" font-size="14" lengthAdjust="spacing" textLength="190.1279" x="314.5" y="353.8857">musicVariety, musicTempo</text></g><!--entity director--><g id="elem_director"><rect fill="#F1F1F1" height="68.8906" rx="2.5" ry="2.5" style="stroke:#181818;stroke-width:0.5;" width="289.3838" x="1315.5" y="618.2969"/><text fill="#000000" font-family="sans-serif" font-size="14" lengthAdjust="spacing" textLength="122.3838" x="1325.5" y="641.292">adaptiveMusician</text><text fill="#000000" font-family="sans-serif" font-size="14" lengthAdjust="spacing" textLength="241.1035" x="1325.5" y="657.5889">Music Director: controls (atomics),</text><text fill="#000000" font-family="sans-serif" font-size="14" lengthAdjust="spacing" textLength="269.3838" x="1325.5" y="673.8857">composeAhead, renderAudio, lifecycle</text></g><!--entity tension--><g id="elem_tension"><rect fill="#F1F1F1" height="52.5938" rx="2.5" ry="2.5" style="stroke:#181818;stroke-width:0.5;" width="252.2236" x="1135" y="772.2969"/><text fill="#000000" font-family="sans-serif" font-size="14" lengthAdjust="spacing" textLength="120.7705" x="1145" y="795.292">tensionController</text><text fill="#000000" font-family="sans-serif" font-size="14" lengthAdjust="spacing" textLength="232.2236" x="1145" y="811.5889">curve, per-part smoothing, mood</text></g><!--entity person--><g id="elem_person"><rect fill="#F1F1F1" height="68.8906" rx="2.5" ry="2.5" style="stroke:#181818;stroke-width:0.5;" width="273.2852" x="1420.5" y="1254.2969"/><text fill="#000000" font-family="sans-serif" font-size="14" lengthAdjust="spacing" textLength="148.1895" x="1430.5" y="1277.292">performerPersonality</text><text fill="#000000" font-family="sans-serif" font-size="14" lengthAdjust="spacing" textLength="253.2852" x="1430.5" y="1293.5889">latent traits -&gt; 15 traits, key, mode,</text><text fill="#000000" font-family="sans-serif" font-size="14" lengthAdjust="spacing" textLength="151.5322" x="1430.5" y="1309.8857">tempo, 3 instruments</text></g><!--entity songs--><g id="elem_songs"><rect fill="#F1F1F1" height="85.1875" rx="2.5" ry="2.5" style="stroke:#181818;stroke-width:0.5;" width="260.0713" x="1184" y="1092.2969"/><text fill="#000000" font-family="sans-serif" font-size="14" lengthAdjust="spacing" textLength="67.7441" x="1194" y="1115.292">songbook</text><text fill="#000000" font-family="sans-serif" font-size="14" lengthAdjust="spacing" textLength="240.0713" x="1194" y="1131.5889">songs: key, mode, tempo, groove;</text><text fill="#000000" font-family="sans-serif" font-size="14" lengthAdjust="spacing" textLength="215.5576" x="1194" y="1147.8857">sections, intensity, drum level,</text><text fill="#000000" font-family="sans-serif" font-size="14" lengthAdjust="spacing" textLength="134.6338" x="1194" y="1164.1826">songs coming back</text></g><!--entity comp--><g id="elem_comp"><rect fill="#F1F1F1" height="68.8906" rx="2.5" ry="2.5" style="stroke:#181818;stroke-width:0.5;" width="310.8486" x="1496.5" y="764.2969"/><text fill="#000000" font-family="sans-serif" font-size="14" lengthAdjust="spacing" textLength="167.043" x="1506.5" y="787.292">composer + vocabulary</text><text fill="#000000" font-family="sans-serif" font-size="14" lengthAdjust="spacing" textLength="240.96" x="1506.5" y="803.5889">rhythm, harmony, melody, drums,</text><text fill="#000000" font-family="sans-serif" font-size="14" lengthAdjust="spacing" textLength="290.8486" x="1506.5" y="819.8857">phrases, motif memory per song, themes</text></g><!--entity chips--><g id="elem_chips"><rect fill="#F1F1F1" height="68.8906" rx="2.5" ry="2.5" style="stroke:#181818;stroke-width:0.5;" width="258.3623" x="1654" y="863.2969"/><text fill="#000000" font-family="sans-serif" font-size="14" lengthAdjust="spacing" textLength="80.1104" x="1664" y="886.292">musicChips</text><text fill="#000000" font-family="sans-serif" font-size="14" lengthAdjust="spacing" textLength="212.8779" x="1664" y="902.5889">AdLib, SID, POKEY, Game Boy:</text><text fill="#000000" font-family="sans-serif" font-size="14" lengthAdjust="spacing" textLength="238.3623" x="1664" y="918.8857">instruments, drum kit, chip model</text></g><!--entity queue--><g id="elem_queue"><rect fill="#F1F1F1" height="52.5938" rx="2.5" ry="2.5" style="stroke:#181818;stroke-width:0.5;" width="220.8467" x="1553.5" y="962.2969"/><text fill="#000000" font-family="sans-serif" font-size="14" lengthAdjust="spacing" textLength="85.8662" x="1563.5" y="985.292">eventQueue</text><text fill="#000000" font-family="sans-serif" font-size="14" lengthAdjust="spacing" textLength="200.8467" x="1563.5" y="1001.5889">note on/off at exact samples</text></g><!--entity synth--><g id="elem_synth"><rect fill="#F1F1F1" height="85.1875" rx="2.5" ry="2.5" style="stroke:#181818;stroke-width:0.5;" width="342.5332" x="1552.5" y="1092.2969"/><text fill="#000000" font-family="sans-serif" font-size="14" lengthAdjust="spacing" textLength="80.3291" x="1562.5" y="1115.292">synthesizer</text><text fill="#000000" font-family="sans-serif" font-size="14" lengthAdjust="spacing" textLength="300.8906" x="1562.5" y="1131.5889">voice pool in channels per part, oscillators,</text><text fill="#000000" font-family="sans-serif" font-size="14" lengthAdjust="spacing" textLength="254.1602" x="1562.5" y="1147.8857">envelopes, filter, vibrato, arpeggios,</text><text fill="#000000" font-family="sans-serif" font-size="14" lengthAdjust="spacing" textLength="322.5332" x="1562.5" y="1164.1826">stepped volume, pitch grid, pan, mix, soft clip</text></g><!--entity tuning--><g id="elem_tuning"><rect fill="#F1F1F1" height="52.5938" rx="2.5" ry="2.5" style="stroke:#181818;stroke-width:0.5;" width="176.2969" x="1209" y="1262.2969"/><text fill="#000000" font-family="sans-serif" font-size="14" lengthAdjust="spacing" textLength="110.6807" x="1219" y="1285.292">musicianTuning</text><text fill="#000000" font-family="sans-serif" font-size="14" lengthAdjust="spacing" textLength="156.2969" x="1219" y="1301.5889">every tunable number</text></g><!--entity sm--><g id="elem_sm"><rect fill="#F1F1F1" height="68.8906" rx="2.5" ry="2.5" style="stroke:#181818;stroke-width:0.5;" width="237.3008" x="1104.5" y="298.2969"/><text fill="#000000" font-family="sans-serif" font-size="14" lengthAdjust="spacing" textLength="103.8584" x="1114.5" y="321.292">soundManager</text><text fill="#000000" font-family="sans-serif" font-size="14" lengthAdjust="spacing" textLength="197.9072" x="1114.5" y="337.5889">OpenAL device and context,</text><text fill="#000000" font-family="sans-serif" font-size="14" lengthAdjust="spacing" textLength="217.3008" x="1114.5" y="353.8857">sound effects, skins.json songs</text></g><!--entity stream--><g id="elem_stream"><rect fill="#F1F1F1" height="52.5938" rx="2.5" ry="2.5" style="stroke:#181818;stroke-width:0.5;" width="244.3076" x="1104" y="446.2969"/><text fill="#000000" font-family="sans-serif" font-size="14" lengthAdjust="spacing" textLength="121.4746" x="1114" y="469.292">performerStream</text><text fill="#000000" font-family="sans-serif" font-size="14" lengthAdjust="spacing" textLength="224.3076" x="1114" y="485.5889">one streaming source, 4 buffers</text></g><!--entity openal--><g id="elem_openal"><rect fill="#F1F1F1" height="52.5938" rx="2.5" ry="2.5" style="stroke:#181818;stroke-width:0.5;" width="141.4063" x="961.5" y="626.2969"/><text fill="#000000" font-family="sans-serif" font-size="14" lengthAdjust="spacing" textLength="54.7695" x="971.5" y="649.292">OpenAL</text><text fill="#000000" font-family="sans-serif" font-size="14" lengthAdjust="spacing" textLength="121.4063" x="971.5" y="665.5889">mixer and device</text></g><!--link cam to cues--><g id="link_cam_cues"><path d="M719.06,149.9169 C739.77,160.4869 763.69,175.9369 779,196.2969 C803.65,229.0669 812.0581,270.9957 815.3981,300.1957 " fill="none" id="cam-to-cues" style="stroke:#181818;stroke-width:1.0;"/><polygon fill="#181818" points="816.08,306.1569,819.0313,296.7606,815.5118,301.1893,811.0831,297.6697,816.08,306.1569" style="stroke:#181818;stroke-width:1.0;"/><text fill="#000000" font-family="sans-serif" font-size="13" lengthAdjust="spacing" textLength="48.2231" x="797" y="216.8638">sighted</text></g><!--link guard to cues--><g id="link_guard_cues"><path d="M480.66,149.9269 C475.16,171.3769 469.93,207.7769 490,228.2969 C499.73,238.2469 601.52,232.8269 615,236.2969 C673.65,251.3869 730.7412,280.3989 770.6212,303.1989 " fill="none" id="guard-to-cues" style="stroke:#181818;stroke-width:1.0;"/><polygon fill="#181818" points="775.83,306.1769,770.0021,298.2374,771.4893,303.6952,766.0315,305.1825,775.83,306.1769" style="stroke:#181818;stroke-width:1.0;"/><text fill="#000000" font-family="sans-serif" font-size="13" lengthAdjust="spacing" textLength="133.1802" x="491" y="216.8638">chased, endangered</text></g><!--link pres to cues--><g id="link_pres_cues"><path d="M902.55,158.5669 C894.56,177.9169 883.06,204.9869 872,228.2969 C859.22,255.2069 846.1626,280.0684 834.9326,300.8484 " fill="none" id="pres-to-cues" style="stroke:#181818;stroke-width:1.0;"/><polygon fill="#181818" points="832.08,306.1269,839.8779,300.1109,834.4572,301.7281,832.8399,296.3074,832.08,306.1269" style="stroke:#181818;stroke-width:1.0;"/><text fill="#000000" font-family="sans-serif" font-size="13" lengthAdjust="spacing" textLength="36.9688" x="887" y="216.8638">now()</text></g><!--link pres to sm--><g id="link_pres_sm"><path d="M952.89,158.4069 C1008.41,194.0469 1104.0107,255.4157 1165.5307,294.9057 " fill="none" id="pres-to-sm" style="stroke:#181818;stroke-width:1.0;"/><polygon fill="#181818" points="1170.58,298.1469,1165.1669,289.919,1166.3723,295.4459,1160.8454,296.6513,1170.58,298.1469" style="stroke:#181818;stroke-width:1.0;"/><text fill="#000000" font-family="sans-serif" font-size="13" lengthAdjust="spacing" textLength="121.272" x="1059" y="216.8638">difficulty, situation</text></g><!--link menu to settings--><g id="link_menu_settings"><path d="M234.81,166.3269 C282.71,202.9969 354.2653,257.7603 402.2453,294.4803 " fill="none" id="menu-to-settings" style="stroke:#181818;stroke-width:1.0;"/><polygon fill="#181818" points="407.01,298.1269,402.2939,289.4806,403.0394,295.0881,397.4319,295.8336,407.01,298.1269" style="stroke:#181818;stroke-width:1.0;"/></g><!--link sm to settings--><g id="link_sm_settings"><path d="M1179.62,298.2669 C1149.17,276.1669 1106.45,249.2969 1064,236.2969 C1011.17,220.1169 700.97,203.0969 632.5,222.2969 C579.93,237.0369 532.252,268.0298 497.352,294.6298 " fill="none" id="sm-to-settings" style="stroke:#181818;stroke-width:1.0;"/><polygon fill="#181818" points="492.58,298.2669,502.1627,295.9926,496.5566,295.236,497.3132,289.6299,492.58,298.2669" style="stroke:#181818;stroke-width:1.0;"/><text fill="#000000" font-family="sans-serif" font-size="13" lengthAdjust="spacing" textLength="140.9941" x="634.6807" y="209.3638">which music, volume,</text><text fill="#000000" font-family="sans-serif" font-size="13" lengthAdjust="spacing" textLength="143.3555" x="633.5" y="224.4966">sound, variety, tempo</text></g><!--link sm to stream--><g id="link_sm_stream"><path d="M1223.73,367.5569 C1224.26,391.8169 1224.8301,418.0183 1225.3101,440.1783 " fill="none" id="sm-to-stream" style="stroke:#181818;stroke-width:1.0;"/><polygon fill="#181818" points="1225.44,446.1769,1229.2442,437.0924,1225.3317,441.178,1221.246,437.2656,1225.44,446.1769" style="stroke:#181818;stroke-width:1.0;"/><text fill="#000000" font-family="sans-serif" font-size="13" lengthAdjust="spacing" textLength="179.6514" x="1225" y="412.3638">pump(level, situation, gain)</text></g><!--link sm to director--><g id="link_sm_director"><path d="M1341.61,353.5869 C1368.43,363.2969 1394.43,377.7569 1413,399.2969 C1466.71,461.6069 1467.8488,559.2722 1464.0488,612.3022 " fill="none" id="sm-to-director" style="stroke:#181818;stroke-width:1.0;"/><polygon fill="#181818" points="1463.62,618.2869,1468.253,609.5958,1463.9774,613.2997,1460.2735,609.024,1463.62,618.2869" style="stroke:#181818;stroke-width:1.0;"/><text fill="#000000" font-family="sans-serif" font-size="13" lengthAdjust="spacing" textLength="131.3901" x="1478.8752" y="469.8638">setStyle, setVariety,</text><text fill="#000000" font-family="sans-serif" font-size="13" lengthAdjust="spacing" textLength="165.1406" x="1462" y="484.9966">setTempoScale (atomics)</text></g><!--link stream to director--><g id="link_stream_director"><path d="M1225.97,499.3069 C1227.19,514.9269 1231.08,534.4969 1242,548.2969 C1267.09,579.9969 1298.729,600.1343 1335.289,615.8743 " fill="none" id="stream-to-director" style="stroke:#181818;stroke-width:1.0;"/><polygon fill="#181818" points="1340.8,618.2469,1334.1153,611.014,1336.2075,616.2697,1330.9518,618.3619,1340.8,618.2469" style="stroke:#181818;stroke-width:1.0;"/><text fill="#000000" font-family="sans-serif" font-size="13" lengthAdjust="spacing" textLength="188.481" x="1243" y="544.3638">composeAhead, renderAudio</text></g><!--link director to tension--><g id="link_director_tension"><path d="M1413.59,687.3769 C1377.76,713.3069 1333.8007,745.1193 1301.1207,768.7693 " fill="none" id="director-to-tension" style="stroke:#181818;stroke-width:1.0;"/><polygon fill="#181818" points="1296.26,772.2869,1305.8961,770.2509,1300.3106,769.3555,1301.206,763.77,1296.26,772.2869" style="stroke:#181818;stroke-width:1.0;"/></g><!--link director to songs--><g id="link_director_songs"><path d="M1463.27,687.5669 C1465.24,726.3569 1462.81,790.1869 1432,833.2969 C1415.35,856.5869 1392.42,840.5769 1375,863.2969 C1323.01,931.1169 1313.8706,1028.9274 1313.1006,1086.2174 " fill="none" id="director-to-songs" style="stroke:#181818;stroke-width:1.0;"/><polygon fill="#181818" points="1313.02,1092.2169,1317.1406,1083.2714,1313.0872,1087.2173,1309.1413,1083.1639,1313.02,1092.2169" style="stroke:#181818;stroke-width:1.0;"/><text fill="#000000" font-family="sans-serif" font-size="13" lengthAdjust="spacing" textLength="109.9351" x="1376" y="902.3638">next phrase plan</text></g><!--link director to comp--><g id="link_director_comp"><path d="M1505.02,687.5569 C1535.83,710.6669 1571.7093,737.5879 1602.4693,760.6479 " fill="none" id="director-to-comp" style="stroke:#181818;stroke-width:1.0;"/><polygon fill="#181818" points="1607.27,764.2469,1602.4682,755.6479,1603.2694,761.2477,1597.6695,762.0489,1607.27,764.2469" style="stroke:#181818;stroke-width:1.0;"/></g><!--link director to chips--><g id="link_director_chips"><path d="M1604.61,673.7369 C1657.66,683.5569 1717.53,697.6269 1770,717.2969 C1779.92,721.0169 1847.66,755.1369 1853,764.2969 C1868.44,790.7869 1865.42,805.2569 1853,833.2969 C1848.08,844.3969 1844.4488,850.1909 1835.6688,858.7809 " fill="none" id="director-to-chips" style="stroke:#181818;stroke-width:1.0;"/><polygon fill="#181818" points="1831.38,862.9769,1840.6105,859.5421,1834.954,859.4802,1835.0159,853.8237,1831.38,862.9769" style="stroke:#181818;stroke-width:1.0;"/><text fill="#000000" font-family="sans-serif" font-size="13" lengthAdjust="spacing" textLength="101.5498" x="1804" y="730.3638">soundFor(style)</text></g><!--link chips to synth--><g id="link_chips_synth"><path d="M1790.56,932.3269 C1796.56,966.7669 1801,1021.0469 1781,1062.2969 C1776.01,1072.5769 1772.9438,1077.9548 1765.9038,1087.2448 " fill="none" id="chips-to-synth" style="stroke:#181818;stroke-width:1.0;"/><polygon fill="#181818" points="1762.28,1092.0269,1770.9038,1087.2697,1765.2999,1088.0419,1764.5277,1082.4379,1762.28,1092.0269" style="stroke:#181818;stroke-width:1.0;"/><text fill="#000000" font-family="sans-serif" font-size="13" lengthAdjust="spacing" textLength="35.1406" x="1796" y="993.3638">dress</text></g><!--link songs to person--><g id="link_songs_person"><path d="M1333.77,1177.6769 C1343.33,1194.1369 1356.19,1212.0069 1372,1224.2969 C1387.55,1236.3869 1400.0453,1243.8597 1418.5853,1251.8997 " fill="none" id="songs-to-person" style="stroke:#181818;stroke-width:1.0;"/><polygon fill="#181818" points="1424.09,1254.2869,1417.4244,1247.0364,1419.5028,1252.2976,1414.2415,1254.3759,1424.09,1254.2869" style="stroke:#181818;stroke-width:1.0;"/><text fill="#000000" font-family="sans-serif" font-size="13" lengthAdjust="spacing" textLength="134.2148" x="1373" y="1220.3638">dressed for the song</text></g><!--link director to queue--><g id="link_director_queue"><path d="M1598.54,687.2969 C1695.7,712.1869 1810.71,745.0369 1825,764.2969 C1843.27,788.9269 1844.73,809.8269 1825,833.2969 C1775.07,892.6969 1702.93,803.8969 1653,863.2969 C1640.85,877.7469 1648.9671,924.2168 1656.2671,956.2568 " fill="none" id="director-to-queue" style="stroke:#181818;stroke-width:1.0;"/><polygon fill="#181818" points="1657.6,962.1069,1659.5007,952.4432,1656.4893,957.2318,1651.7006,954.2203,1657.6,962.1069" style="stroke:#181818;stroke-width:1.0;"/></g><!--link director to synth--><g id="link_director_synth"><path d="M1604.51,654.1869 C1721.62,657.9569 1873.46,671.8269 1913,717.2969 C1975.7,789.4069 1946.72,842.8869 1913,932.2969 C1887.95,998.7169 1833.3845,1051.9503 1787.8545,1088.1903 " fill="none" id="director-to-synth" style="stroke:#181818;stroke-width:1.0;"/><polygon fill="#181818" points="1783.16,1091.9269,1792.6927,1089.4516,1787.072,1088.813,1787.7106,1083.1924,1783.16,1091.9269" style="stroke:#181818;stroke-width:1.0;"/></g><!--link comp to person--><g id="link_comp_person"><path d="M1597.32,833.3769 C1586.44,842.0469 1575.94,852.1269 1568,863.2969 C1541.2,900.9869 1543.37,916.6469 1536,962.2969 C1520.76,1056.6269 1525.63,1082.1969 1535,1177.2969 C1537.57,1203.3769 1542.1261,1226.5916 1547.1661,1248.3516 " fill="none" id="comp-to-person" style="stroke:#181818;stroke-width:1.0;"/><polygon fill="#181818" points="1548.52,1254.1969,1550.386,1244.5264,1547.3918,1249.3258,1542.5924,1246.3316,1548.52,1254.1969" style="stroke:#181818;stroke-width:1.0;"/></g><!--link comp to queue--><g id="link_comp_queue"><path d="M1607.02,833.3369 C1598.47,842.0669 1590.73,852.1769 1586,863.2969 C1573.99,891.5169 1571.94,905.0369 1586,932.2969 C1592.17,944.2569 1597.4188,950.6489 1608.3088,958.6689 " fill="none" id="comp-to-queue" style="stroke:#181818;stroke-width:1.0;"/><polygon fill="#181818" points="1613.14,962.2269,1608.2651,953.6691,1609.114,959.2619,1603.5212,960.1107,1613.14,962.2269" style="stroke:#181818;stroke-width:1.0;"/><text fill="#000000" font-family="sans-serif" font-size="13" lengthAdjust="spacing" textLength="51.3462" x="1587" y="902.3638">phrases</text></g><!--link queue to synth--><g id="link_queue_synth"><path d="M1674.73,1015.5369 C1683.59,1036.8169 1694.0428,1061.8982 1704.3528,1086.6482 " fill="none" id="queue-to-synth" style="stroke:#181818;stroke-width:1.0;"/><polygon fill="#181818" points="1706.66,1092.1869,1706.8916,1082.3407,1704.7373,1087.5713,1699.5067,1085.417,1706.66,1092.1869" style="stroke:#181818;stroke-width:1.0;"/><text fill="#000000" font-family="sans-serif" font-size="13" lengthAdjust="spacing" textLength="77.2192" x="1695" y="1058.3638">note events</text></g><!--link synth to person--><g id="link_synth_person"><path d="M1678.37,1177.3269 C1651.81,1201.5069 1623.2075,1227.5385 1598.3075,1250.1985 " fill="none" id="synth-to-person" style="stroke:#181818;stroke-width:1.0;"/><polygon fill="#181818" points="1593.87,1254.2369,1603.2185,1251.1377,1597.568,1250.8716,1597.8341,1245.221,1593.87,1254.2369" style="stroke:#181818;stroke-width:1.0;"/><text fill="#000000" font-family="sans-serif" font-size="13" lengthAdjust="spacing" textLength="78.0762" x="1641" y="1220.3638">instruments</text></g><!--link director to tuning--><g id="link_director_tuning"><path d="M1450.12,687.3369 C1434.99,738.5169 1407.54,830.5269 1405,833.2969 C1380.69,859.7169 1358.22,841.1069 1330,863.2969 C1231.8,940.5169 1205.03,973.2969 1167,1092.2969 C1155.5,1128.2869 1151.14,1143.0069 1167,1177.2969 C1184.03,1214.1269 1215.0137,1239.9567 1244.8337,1259.0067 " fill="none" id="director-to-tuning" style="stroke:#181818;stroke-width:1.0;stroke-dasharray:7.0,7.0;"/><polygon fill="#181818" points="1249.89,1262.2369,1244.459,1254.0208,1245.6764,1259.5451,1240.1521,1260.7625,1249.89,1262.2369" style="stroke:#181818;stroke-width:1.0;"/></g><!--link comp to tuning--><g id="link_comp_tuning"><path d="M1564.34,833.4369 C1551.91,841.5469 1540.5,851.4069 1532,863.2969 C1437.58,995.4669 1578.69,1099.2669 1475,1224.2969 C1471.41,1228.6269 1426.1837,1244.6446 1379.7337,1260.3546 " fill="none" id="comp-to-tuning" style="stroke:#181818;stroke-width:1.0;stroke-dasharray:7.0,7.0;"/><polygon fill="#181818" points="1374.05,1262.2769,1383.8571,1263.1826,1378.7864,1260.6749,1381.294,1255.6043,1374.05,1262.2769" style="stroke:#181818;stroke-width:1.0;"/></g><!--link songs to tuning--><g id="link_songs_tuning"><path d="M1306.22,1177.6569 C1304.63,1187.3669 1303.1,1197.6669 1302,1207.2969 C1299.91,1225.5169 1298.9266,1240.1833 1298.1966,1256.0033 " fill="none" id="songs-to-tuning" style="stroke:#181818;stroke-width:1.0;stroke-dasharray:7.0,7.0;"/><polygon fill="#181818" points="1297.92,1261.9969,1302.3306,1253.1908,1298.1505,1257.0022,1294.3391,1252.8221,1297.92,1261.9969" style="stroke:#181818;stroke-width:1.0;"/></g><!--link synth to tuning--><g id="link_synth_tuning"><path d="M1616.41,1177.3669 C1576.52,1192.4969 1530.82,1209.5169 1489,1224.2969 C1452.26,1237.2869 1416.9835,1249.0841 1382.3535,1260.3941 " fill="none" id="synth-to-tuning" style="stroke:#181818;stroke-width:1.0;stroke-dasharray:7.0,7.0;"/><polygon fill="#181818" points="1376.65,1262.2569,1386.4471,1263.2651,1381.4029,1260.7046,1383.9635,1255.6604,1376.65,1262.2569" style="stroke:#181818;stroke-width:1.0;"/></g><!--link stream to openal--><g id="link_stream_openal"><path d="M1156.44,499.3369 C1139.08,507.7969 1121.34,518.4169 1107,531.2969 C1077.13,558.1469 1057.3932,594.204 1045.1732,620.824 " fill="none" id="stream-to-openal" style="stroke:#181818;stroke-width:1.0;"/><polygon fill="#181818" points="1042.67,626.2769,1050.06,619.7663,1044.756,621.7328,1042.7895,616.4287,1042.67,626.2769" style="stroke:#181818;stroke-width:1.0;"/><text fill="#000000" font-family="sans-serif" font-size="13" lengthAdjust="spacing" textLength="90.6191" x="1108" y="544.3638">stereo frames</text></g><!--link sm to openal--><g id="link_sm_openal"><path d="M1167.84,367.4169 C1139.81,387.1469 1107.44,414.4469 1087,446.2969 C1050.19,503.6469 1038.4539,579.0954 1034.4439,620.1054 " fill="none" id="sm-to-openal" style="stroke:#181818;stroke-width:1.0;"/><polygon fill="#181818" points="1033.86,626.0769,1038.7169,617.5089,1034.3466,621.1006,1030.7548,616.7303,1033.86,626.0769" style="stroke:#181818;stroke-width:1.0;"/></g><!--SRC=[TLPDR-Gs3BtxLn1xcg1E5aNRonHO84tQHT4DTei95YXsUj3OjAt6bbn9dcHQzB_taRBd8qKloKWY7yb7yiqactgcnux9r6PCTiyqJD5MrhWrzUR08P9nDIMnc6hhQUSdLvjmAEAJTQC9Pg3A3wDtxD8c7O0Mk4h6jJqNnMYg9zColNbl1gPLAtzJ5zZKLs_exuBeonWumfF3rZM-x_tplMqQMqrzEgpkhqhAbnkR9fEiTwkhtyb44Y_nRZslrvhmUbrD7BSkshPBN9TKTIRAVqQshkN0DLs_8-UVPmWn5uZ8rHHiEjmXjs3oanaqjMaSEJsOYEpUJoRK84NVMpc8HHBs7jXDTETTOzkjUz1SQ0DkA9fXx3dIM_h4eV41-ENM7JzJ52PBKXVQcs0v7PPZOb2gmGR0Qwd8RyCfMTUYJAsvpBtwxFjfu9B61NcZmBFHvmLOJuz7t3XZ5V-SjUdszH3GoddIjdLe6gPXwTioBW-puLmwtLjflmzhJ8LBmVUHLYRvmLRn2Ydfg4I-5RGIa-A0UIjpLL9l6wuELS-QNZtZACsCjdftbm5xcHNqR9zBliOC9eg3zwb3FQZJ-reXPZTjvK8Ds8_UcHuDtxhUm2HH2iQcADFnzNVpeQGd5ifypKXQcr7IDsHTJ05SknJp62gQJf5txSxx9mmWFiNrcJ_DxctmVi_VmmA58Iy4iKvpbExKmAMUzzoNCuQi5GgY7PgJEoQt4cmcCT1NjFULsKqzzd7hGdT8tL1IPyBWdOJdtjSpTWJis0NiH9IyactmFFXma28KkfGb7pXN9Y4abCx1NMT7pDnj_S7kIjhyV5_Ifu-__FXRIRhMF_Z3UklEk9chUR99rj2EoaEVSGLAW56fIxzEFF7MEP-Ol7lhcuPC8dunLLgsHxt-53kb-U2GPBH_oGpilQsOHkzx42dxxXptsXIIcIZ9nyhsQB8FKZqxaEj7gR-nFNQwfBtT1JoNPCB8RMkzs67TiVSrg9tNogQgG_Si1dOq3kpPbnACDOcgtewvDPBNaI-im-C4Gg07A1CKfycP7PJHJSEEGnvEDRXOFYKpYooxrZe8fah4AyNKkmVZu0CIFexiRZzGpNiXGwHQzevVaewHU7E3lPAcY637cp_GwpnAEVFXOZys2Q66hOESKzJFCe802XMe-9Ps4z32xAhlAE5BJWA2Orz0lYIHyr4pK8w5AmgeAbrZoKHuQKspK1SgfkSF_nNkGkJ-t4HL_7GR1zpLn-yDLBfyNHIYdjbcaRiuN9pX-TnPD7XMrBdhCtdbIPTrYu_UMZfynsaOLtbjJr6nwyQwgyLuaJ8fclDtP2cV5cKMHKWgp9lAO4gEUbdCOLw1_A-65aSZyLZax-8oAmiOn8HGrWCQU_FAIhV_yaRsLWeGLdxoOHMbZAiYtokoh83q0Lq1onf7xhD6BW_OAmoQ_fmGayiWUSqlyzN5adpEm4vdzP0sP6Khylay7TKM5HiafNSNIPsfrYdmpSsxPJyrqjavrtL-ePZd5wUUvSaNrg0sxAd1ZoK-Jc1-_HS0]--></g></svg>